G04 #@! TF.GenerationSoftware,KiCad,Pcbnew,(5.1.5-0-10_14)*
G04 #@! TF.CreationDate,2020-01-09T16:24:32-05:00*
G04 #@! TF.ProjectId,branchControllerPCB,6272616e-6368-4436-9f6e-74726f6c6c65,rev?*
G04 #@! TF.SameCoordinates,Original*
G04 #@! TF.FileFunction,Copper,L2,Inr*
G04 #@! TF.FilePolarity,Positive*
%FSLAX46Y46*%
G04 Gerber Fmt 4.6, Leading zero omitted, Abs format (unit mm)*
G04 Created by KiCad (PCBNEW (5.1.5-0-10_14)) date 2020-01-09 16:24:32*
%MOMM*%
%LPD*%
G04 APERTURE LIST*
%ADD10O,1.700000X1.700000*%
%ADD11R,1.700000X1.700000*%
%ADD12C,1.600000*%
%ADD13R,1.600000X1.600000*%
%ADD14C,1.900000*%
%ADD15R,1.665000X1.665000*%
%ADD16C,1.665000*%
%ADD17C,1.800000*%
%ADD18C,0.100000*%
%ADD19R,1.295400X1.295400*%
%ADD20C,1.295400*%
%ADD21O,2.400000X2.400000*%
%ADD22C,2.400000*%
%ADD23C,1.408000*%
%ADD24R,1.408000X1.408000*%
%ADD25C,2.550000*%
%ADD26R,1.800000X1.800000*%
%ADD27C,0.250000*%
G04 APERTURE END LIST*
D10*
X179070000Y-96520000D03*
X176530000Y-96520000D03*
X173990000Y-96520000D03*
X171450000Y-96520000D03*
X168910000Y-96520000D03*
D11*
X166370000Y-96520000D03*
D12*
X187960000Y-104140000D03*
X185420000Y-104140000D03*
X182880000Y-104140000D03*
X180340000Y-104140000D03*
X190500000Y-104140000D03*
X193040000Y-104140000D03*
X195580000Y-104140000D03*
X180340000Y-106680000D03*
X180340000Y-109220000D03*
X180340000Y-111760000D03*
X180340000Y-114300000D03*
X180340000Y-116840000D03*
X180340000Y-119380000D03*
X180340000Y-121920000D03*
X180340000Y-124460000D03*
X180340000Y-127000000D03*
X180340000Y-129540000D03*
X180340000Y-132080000D03*
X180340000Y-134620000D03*
X180340000Y-137160000D03*
X182880000Y-134620000D03*
X182880000Y-129540000D03*
X182880000Y-127000000D03*
X182880000Y-124460000D03*
X195580000Y-106680000D03*
X195580000Y-109220000D03*
X195580000Y-111760000D03*
X195580000Y-114300000D03*
X195580000Y-116840000D03*
X195580000Y-119380000D03*
X195580000Y-121920000D03*
X195580000Y-124460000D03*
X195580000Y-127000000D03*
X195580000Y-129540000D03*
X195580000Y-132080000D03*
X195580000Y-134620000D03*
D13*
X195580000Y-137160000D03*
D14*
X187960000Y-127000000D03*
X187960000Y-130810000D03*
D15*
X171450000Y-132080000D03*
D16*
X171450000Y-129540000D03*
X171450000Y-127000000D03*
X171450000Y-124460000D03*
X171450000Y-121920000D03*
X171450000Y-119380000D03*
D15*
X151130000Y-132080000D03*
D16*
X151130000Y-129540000D03*
X151130000Y-127000000D03*
X151130000Y-124460000D03*
X151130000Y-121920000D03*
X151130000Y-119380000D03*
D17*
X205740000Y-87630000D03*
X203200000Y-87630000D03*
G04 #@! TA.AperFunction,ViaPad*
D18*
G36*
X201335947Y-86731196D02*
G01*
X201360060Y-86734773D01*
X201383707Y-86740696D01*
X201406659Y-86748908D01*
X201428695Y-86759331D01*
X201449604Y-86771863D01*
X201469183Y-86786384D01*
X201487245Y-86802755D01*
X201503616Y-86820817D01*
X201518137Y-86840396D01*
X201530669Y-86861305D01*
X201541092Y-86883341D01*
X201549304Y-86906293D01*
X201555227Y-86929940D01*
X201558804Y-86954053D01*
X201560000Y-86978400D01*
X201560000Y-88281600D01*
X201558804Y-88305947D01*
X201555227Y-88330060D01*
X201549304Y-88353707D01*
X201541092Y-88376659D01*
X201530669Y-88398695D01*
X201518137Y-88419604D01*
X201503616Y-88439183D01*
X201487245Y-88457245D01*
X201469183Y-88473616D01*
X201449604Y-88488137D01*
X201428695Y-88500669D01*
X201406659Y-88511092D01*
X201383707Y-88519304D01*
X201360060Y-88525227D01*
X201335947Y-88528804D01*
X201311600Y-88530000D01*
X200008400Y-88530000D01*
X199984053Y-88528804D01*
X199959940Y-88525227D01*
X199936293Y-88519304D01*
X199913341Y-88511092D01*
X199891305Y-88500669D01*
X199870396Y-88488137D01*
X199850817Y-88473616D01*
X199832755Y-88457245D01*
X199816384Y-88439183D01*
X199801863Y-88419604D01*
X199789331Y-88398695D01*
X199778908Y-88376659D01*
X199770696Y-88353707D01*
X199764773Y-88330060D01*
X199761196Y-88305947D01*
X199760000Y-88281600D01*
X199760000Y-86978400D01*
X199761196Y-86954053D01*
X199764773Y-86929940D01*
X199770696Y-86906293D01*
X199778908Y-86883341D01*
X199789331Y-86861305D01*
X199801863Y-86840396D01*
X199816384Y-86820817D01*
X199832755Y-86802755D01*
X199850817Y-86786384D01*
X199870396Y-86771863D01*
X199891305Y-86759331D01*
X199913341Y-86748908D01*
X199936293Y-86740696D01*
X199959940Y-86734773D01*
X199984053Y-86731196D01*
X200008400Y-86730000D01*
X201311600Y-86730000D01*
X201335947Y-86731196D01*
G37*
G04 #@! TD.AperFunction*
D19*
X214630000Y-88900000D03*
D20*
X214630000Y-91440000D03*
X214630000Y-93980000D03*
X214630000Y-96520000D03*
X214630000Y-99060000D03*
X214630000Y-101600000D03*
X214630000Y-104140000D03*
X214630000Y-106680000D03*
X214630000Y-109220000D03*
X214630000Y-111760000D03*
X222250000Y-111760000D03*
X222250000Y-109220000D03*
X222250000Y-106680000D03*
X222250000Y-104140000D03*
X222250000Y-101600000D03*
X222250000Y-99060000D03*
X222250000Y-96520000D03*
X222250000Y-93980000D03*
X222250000Y-91440000D03*
X222250000Y-88900000D03*
D19*
X229362000Y-93980000D03*
D20*
X229362000Y-96520000D03*
X229362000Y-99060000D03*
X229362000Y-101600000D03*
X229362000Y-104140000D03*
X229362000Y-106680000D03*
X229362000Y-109220000D03*
X229362000Y-111760000D03*
X237490000Y-111760000D03*
X237490000Y-109220000D03*
X237490000Y-106680000D03*
X237490000Y-104140000D03*
X237490000Y-101600000D03*
X237490000Y-99060000D03*
X237490000Y-96520000D03*
X237490000Y-93980000D03*
D21*
X176530000Y-121920000D03*
D22*
X176530000Y-114300000D03*
D23*
X231775000Y-121920000D03*
X229235000Y-121920000D03*
X226695000Y-121920000D03*
X230505000Y-124460000D03*
X227965000Y-124460000D03*
D24*
X225425000Y-124460000D03*
D23*
X233045000Y-124460000D03*
X234315000Y-121920000D03*
D25*
X222155000Y-133860000D03*
X237585000Y-133860000D03*
X217265000Y-133860000D03*
X201835000Y-133860000D03*
D23*
X213995000Y-121920000D03*
X212725000Y-124460000D03*
D24*
X205105000Y-124460000D03*
D23*
X207645000Y-124460000D03*
X210185000Y-124460000D03*
X206375000Y-121920000D03*
X208915000Y-121920000D03*
X211455000Y-121920000D03*
D17*
X160020000Y-107950000D03*
D26*
X157480000Y-107950000D03*
D27*
X167640000Y-107950000D02*
X176530000Y-114300000D01*
X160020000Y-107950000D02*
X167640000Y-107950000D01*
X211455000Y-120924394D02*
X211455000Y-121920000D01*
X221592095Y-110787299D02*
X211455000Y-120924394D01*
X222122299Y-110787299D02*
X221592095Y-110787299D01*
X227796897Y-105112701D02*
X222122299Y-110787299D01*
X231437299Y-105112701D02*
X227796897Y-105112701D01*
X237490000Y-99060000D02*
X231437299Y-105112701D01*
X236842301Y-97167699D02*
X237490000Y-96520000D01*
X229489701Y-102572701D02*
X231437299Y-102572701D01*
X224409701Y-107652701D02*
X229489701Y-102572701D01*
X231437299Y-102572701D02*
X236842301Y-97167699D01*
X222186693Y-107652701D02*
X224409701Y-107652701D01*
X208915000Y-120924394D02*
X222186693Y-107652701D01*
X208915000Y-121920000D02*
X208915000Y-120924394D01*
X231437299Y-100032701D02*
X236842301Y-94627699D01*
X229489701Y-100032701D02*
X231437299Y-100032701D01*
X224409701Y-105112701D02*
X229489701Y-100032701D01*
X236842301Y-94627699D02*
X237490000Y-93980000D01*
X222377701Y-105112701D02*
X224409701Y-105112701D01*
X221277299Y-106213103D02*
X222377701Y-105112701D01*
X221277299Y-107017701D02*
X221277299Y-106213103D01*
X206375000Y-121920000D02*
X221277299Y-107017701D01*
X214698999Y-121216001D02*
X213995000Y-121920000D01*
X223222701Y-112692299D02*
X214698999Y-121216001D01*
X223222701Y-111379701D02*
X223222701Y-112692299D01*
X228895103Y-105707299D02*
X223222701Y-111379701D01*
X233382701Y-105707299D02*
X228895103Y-105707299D01*
X237490000Y-101600000D02*
X233382701Y-105707299D01*
X235400010Y-111309990D02*
X236842301Y-109867699D01*
X236842301Y-109867699D02*
X237490000Y-109220000D01*
X235400010Y-118294990D02*
X235400010Y-111309990D01*
X231775000Y-121920000D02*
X235400010Y-118294990D01*
X236842301Y-107327699D02*
X237490000Y-106680000D01*
X234950000Y-115209394D02*
X234950000Y-109220000D01*
X234950000Y-109220000D02*
X236842301Y-107327699D01*
X229235000Y-120924394D02*
X234950000Y-115209394D01*
X229235000Y-121920000D02*
X229235000Y-120924394D01*
X237490000Y-105055986D02*
X237490000Y-104140000D01*
X226695000Y-115850986D02*
X237490000Y-105055986D01*
X226695000Y-121920000D02*
X226695000Y-115850986D01*
X237490000Y-112675986D02*
X237490000Y-111760000D01*
X237490000Y-117749394D02*
X237490000Y-112675986D01*
X234315000Y-120924394D02*
X237490000Y-117749394D01*
X234315000Y-121920000D02*
X234315000Y-120924394D01*
X176530000Y-124460000D02*
X176530000Y-121920000D01*
X180340000Y-129540000D02*
X176530000Y-124460000D01*
X177800000Y-111219999D02*
X177800000Y-106680000D01*
X178640993Y-114249497D02*
X177800000Y-111219999D01*
X176530000Y-118110000D02*
X178640993Y-114249497D01*
X177800000Y-106680000D02*
X180340000Y-104140000D01*
X171006898Y-120650000D02*
X171893102Y-120650000D01*
X171893102Y-120650000D02*
X175260000Y-118110000D01*
X175260000Y-118110000D02*
X176530000Y-118110000D01*
X170292499Y-121364399D02*
X171006898Y-120650000D01*
X170292499Y-123302499D02*
X170292499Y-121364399D01*
X171450000Y-124460000D02*
X170292499Y-123302499D01*
X194780001Y-104939999D02*
X195580000Y-104140000D01*
X151130000Y-119380000D02*
X151130000Y-107950000D01*
X151130000Y-107950000D02*
X158750000Y-100330000D01*
X191770000Y-100330000D02*
X195580000Y-104140000D01*
X158750000Y-100330000D02*
X191770000Y-100330000D01*
X179070000Y-96520000D02*
X179070000Y-90170000D01*
X179070000Y-90170000D02*
X185420000Y-83820000D01*
X217170000Y-83820000D02*
X222250000Y-88900000D01*
X185420000Y-83820000D02*
X217170000Y-83820000D01*
X179070000Y-90170000D02*
X166370000Y-90170000D01*
X166370000Y-90170000D02*
X146050000Y-110490000D01*
X146050000Y-110490000D02*
X146050000Y-132080000D01*
X151130000Y-137160000D02*
X180340000Y-137160000D01*
X146050000Y-132080000D02*
X151130000Y-137160000D01*
X194780001Y-107479999D02*
X195580000Y-106680000D01*
X181465001Y-130080001D02*
X181465001Y-120794999D01*
X180880001Y-130665001D02*
X181465001Y-130080001D01*
X179799999Y-130665001D02*
X180880001Y-130665001D01*
X181465001Y-120794999D02*
X194780001Y-107479999D01*
X174530001Y-130080001D02*
X179214999Y-130080001D01*
X179214999Y-130080001D02*
X179799999Y-130665001D01*
X171450000Y-127000000D02*
X174530001Y-130080001D01*
X196379999Y-108420001D02*
X195580000Y-109220000D01*
X196705001Y-108094999D02*
X196379999Y-108420001D01*
X196120001Y-105554999D02*
X196705001Y-106139999D01*
X196705001Y-106139999D02*
X196705001Y-108094999D01*
X195039999Y-105554999D02*
X196120001Y-105554999D01*
X194454999Y-106139999D02*
X195039999Y-105554999D01*
X194454999Y-106930003D02*
X194454999Y-106139999D01*
X180880001Y-120505001D02*
X194454999Y-106930003D01*
X178925001Y-120505001D02*
X180880001Y-120505001D01*
X175260000Y-119380000D02*
X177800000Y-119380000D01*
X177800000Y-119380000D02*
X178925001Y-120505001D01*
X172864999Y-120505001D02*
X175260000Y-119380000D01*
X171450000Y-121920000D02*
X172864999Y-120505001D01*
X201930000Y-121920000D02*
X214630000Y-109220000D01*
X195580000Y-121920000D02*
X201930000Y-121920000D01*
X199760000Y-87630000D02*
X200660000Y-87630000D01*
X194780001Y-126200001D02*
X195580000Y-127000000D01*
X194454999Y-125874999D02*
X194780001Y-126200001D01*
X194454999Y-121379999D02*
X194454999Y-125874999D01*
X195039999Y-120794999D02*
X194454999Y-121379999D01*
X195830003Y-120794999D02*
X195039999Y-120794999D01*
X200660000Y-115965002D02*
X195830003Y-120794999D01*
X200660000Y-87630000D02*
X200660000Y-115965002D01*
M02*
