G04 #@! TF.GenerationSoftware,KiCad,Pcbnew,(5.1.5-0-10_14)*
G04 #@! TF.CreationDate,2019-12-23T12:59:41-05:00*
G04 #@! TF.ProjectId,branchControllerPCB,6272616e-6368-4436-9f6e-74726f6c6c65,rev?*
G04 #@! TF.SameCoordinates,Original*
G04 #@! TF.FileFunction,Copper,L3,Inr*
G04 #@! TF.FilePolarity,Positive*
%FSLAX46Y46*%
G04 Gerber Fmt 4.6, Leading zero omitted, Abs format (unit mm)*
G04 Created by KiCad (PCBNEW (5.1.5-0-10_14)) date 2019-12-23 12:59:41*
%MOMM*%
%LPD*%
G04 APERTURE LIST*
%ADD10O,1.700000X1.700000*%
%ADD11R,1.700000X1.700000*%
%ADD12C,1.600000*%
%ADD13R,1.600000X1.600000*%
%ADD14C,1.900000*%
%ADD15R,1.665000X1.665000*%
%ADD16C,1.665000*%
%ADD17C,1.800000*%
%ADD18C,0.100000*%
%ADD19R,1.295400X1.295400*%
%ADD20C,1.295400*%
%ADD21O,2.400000X2.400000*%
%ADD22C,2.400000*%
%ADD23C,1.408000*%
%ADD24R,1.408000X1.408000*%
%ADD25C,2.550000*%
%ADD26R,1.800000X1.800000*%
%ADD27C,0.250000*%
G04 APERTURE END LIST*
D10*
X179070000Y-96520000D03*
X176530000Y-96520000D03*
X173990000Y-96520000D03*
X171450000Y-96520000D03*
X168910000Y-96520000D03*
D11*
X166370000Y-96520000D03*
D12*
X187960000Y-104140000D03*
X185420000Y-104140000D03*
X182880000Y-104140000D03*
X180340000Y-104140000D03*
X190500000Y-104140000D03*
X193040000Y-104140000D03*
X195580000Y-104140000D03*
X180340000Y-106680000D03*
X180340000Y-109220000D03*
X180340000Y-111760000D03*
X180340000Y-114300000D03*
X180340000Y-116840000D03*
X180340000Y-119380000D03*
X180340000Y-121920000D03*
X180340000Y-124460000D03*
X180340000Y-127000000D03*
X180340000Y-129540000D03*
X180340000Y-132080000D03*
X180340000Y-134620000D03*
X180340000Y-137160000D03*
X182880000Y-134620000D03*
X182880000Y-129540000D03*
X182880000Y-127000000D03*
X182880000Y-124460000D03*
X195580000Y-106680000D03*
X195580000Y-109220000D03*
X195580000Y-111760000D03*
X195580000Y-114300000D03*
X195580000Y-116840000D03*
X195580000Y-119380000D03*
X195580000Y-121920000D03*
X195580000Y-124460000D03*
X195580000Y-127000000D03*
X195580000Y-129540000D03*
X195580000Y-132080000D03*
X195580000Y-134620000D03*
D13*
X195580000Y-137160000D03*
D14*
X187960000Y-127000000D03*
X187960000Y-130810000D03*
D15*
X171450000Y-132080000D03*
D16*
X171450000Y-129540000D03*
X171450000Y-127000000D03*
X171450000Y-124460000D03*
X171450000Y-121920000D03*
X171450000Y-119380000D03*
D15*
X151130000Y-132080000D03*
D16*
X151130000Y-129540000D03*
X151130000Y-127000000D03*
X151130000Y-124460000D03*
X151130000Y-121920000D03*
X151130000Y-119380000D03*
D17*
X205740000Y-87630000D03*
X203200000Y-87630000D03*
G04 #@! TA.AperFunction,ViaPad*
D18*
G36*
X201335947Y-86731196D02*
G01*
X201360060Y-86734773D01*
X201383707Y-86740696D01*
X201406659Y-86748908D01*
X201428695Y-86759331D01*
X201449604Y-86771863D01*
X201469183Y-86786384D01*
X201487245Y-86802755D01*
X201503616Y-86820817D01*
X201518137Y-86840396D01*
X201530669Y-86861305D01*
X201541092Y-86883341D01*
X201549304Y-86906293D01*
X201555227Y-86929940D01*
X201558804Y-86954053D01*
X201560000Y-86978400D01*
X201560000Y-88281600D01*
X201558804Y-88305947D01*
X201555227Y-88330060D01*
X201549304Y-88353707D01*
X201541092Y-88376659D01*
X201530669Y-88398695D01*
X201518137Y-88419604D01*
X201503616Y-88439183D01*
X201487245Y-88457245D01*
X201469183Y-88473616D01*
X201449604Y-88488137D01*
X201428695Y-88500669D01*
X201406659Y-88511092D01*
X201383707Y-88519304D01*
X201360060Y-88525227D01*
X201335947Y-88528804D01*
X201311600Y-88530000D01*
X200008400Y-88530000D01*
X199984053Y-88528804D01*
X199959940Y-88525227D01*
X199936293Y-88519304D01*
X199913341Y-88511092D01*
X199891305Y-88500669D01*
X199870396Y-88488137D01*
X199850817Y-88473616D01*
X199832755Y-88457245D01*
X199816384Y-88439183D01*
X199801863Y-88419604D01*
X199789331Y-88398695D01*
X199778908Y-88376659D01*
X199770696Y-88353707D01*
X199764773Y-88330060D01*
X199761196Y-88305947D01*
X199760000Y-88281600D01*
X199760000Y-86978400D01*
X199761196Y-86954053D01*
X199764773Y-86929940D01*
X199770696Y-86906293D01*
X199778908Y-86883341D01*
X199789331Y-86861305D01*
X199801863Y-86840396D01*
X199816384Y-86820817D01*
X199832755Y-86802755D01*
X199850817Y-86786384D01*
X199870396Y-86771863D01*
X199891305Y-86759331D01*
X199913341Y-86748908D01*
X199936293Y-86740696D01*
X199959940Y-86734773D01*
X199984053Y-86731196D01*
X200008400Y-86730000D01*
X201311600Y-86730000D01*
X201335947Y-86731196D01*
G37*
G04 #@! TD.AperFunction*
D19*
X214630000Y-88900000D03*
D20*
X214630000Y-91440000D03*
X214630000Y-93980000D03*
X214630000Y-96520000D03*
X214630000Y-99060000D03*
X214630000Y-101600000D03*
X214630000Y-104140000D03*
X214630000Y-106680000D03*
X214630000Y-109220000D03*
X214630000Y-111760000D03*
X222250000Y-111760000D03*
X222250000Y-109220000D03*
X222250000Y-106680000D03*
X222250000Y-104140000D03*
X222250000Y-101600000D03*
X222250000Y-99060000D03*
X222250000Y-96520000D03*
X222250000Y-93980000D03*
X222250000Y-91440000D03*
X222250000Y-88900000D03*
D19*
X229362000Y-93980000D03*
D20*
X229362000Y-96520000D03*
X229362000Y-99060000D03*
X229362000Y-101600000D03*
X229362000Y-104140000D03*
X229362000Y-106680000D03*
X229362000Y-109220000D03*
X229362000Y-111760000D03*
X237490000Y-111760000D03*
X237490000Y-109220000D03*
X237490000Y-106680000D03*
X237490000Y-104140000D03*
X237490000Y-101600000D03*
X237490000Y-99060000D03*
X237490000Y-96520000D03*
X237490000Y-93980000D03*
D21*
X176530000Y-121920000D03*
D22*
X176530000Y-114300000D03*
D23*
X231775000Y-121920000D03*
X229235000Y-121920000D03*
X226695000Y-121920000D03*
X230505000Y-124460000D03*
X227965000Y-124460000D03*
D24*
X225425000Y-124460000D03*
D23*
X233045000Y-124460000D03*
X234315000Y-121920000D03*
D25*
X222155000Y-133860000D03*
X237585000Y-133860000D03*
X217265000Y-133860000D03*
X201835000Y-133860000D03*
D23*
X213995000Y-121920000D03*
X212725000Y-124460000D03*
D24*
X205105000Y-124460000D03*
D23*
X207645000Y-124460000D03*
X210185000Y-124460000D03*
X206375000Y-121920000D03*
X208915000Y-121920000D03*
X211455000Y-121920000D03*
D17*
X160020000Y-107950000D03*
D26*
X157480000Y-107950000D03*
D27*
X213714014Y-93980000D02*
X214630000Y-93980000D01*
X193914998Y-93980000D02*
X213714014Y-93980000D01*
X184294999Y-103599999D02*
X193914998Y-93980000D01*
X184294999Y-104390003D02*
X184294999Y-103599999D01*
X182005002Y-106680000D02*
X184294999Y-104390003D01*
X180340000Y-106680000D02*
X182005002Y-106680000D01*
X180340000Y-116840000D02*
X175260000Y-116840000D01*
X166370000Y-95420000D02*
X166370000Y-96520000D01*
X169474001Y-95344999D02*
X166445001Y-95344999D01*
X170085001Y-95955999D02*
X169474001Y-95344999D01*
X166445001Y-95344999D02*
X166370000Y-95420000D01*
X170085001Y-111665001D02*
X170085001Y-95955999D01*
X175260000Y-116840000D02*
X170085001Y-111665001D01*
X168910000Y-97722081D02*
X168910000Y-96520000D01*
X168910000Y-111477002D02*
X168910000Y-97722081D01*
X176812998Y-119380000D02*
X168910000Y-111477002D01*
X180340000Y-119380000D02*
X176812998Y-119380000D01*
X213982301Y-103492301D02*
X214630000Y-104140000D01*
X195039999Y-103014999D02*
X213504999Y-103014999D01*
X213504999Y-103014999D02*
X213982301Y-103492301D01*
X194454999Y-103599999D02*
X195039999Y-103014999D01*
X194454999Y-107805001D02*
X194454999Y-103599999D01*
X180340000Y-121920000D02*
X194454999Y-107805001D01*
X208135001Y-113174999D02*
X213982301Y-107327699D01*
X195039999Y-113174999D02*
X208135001Y-113174999D01*
X194454999Y-113759999D02*
X195039999Y-113174999D01*
X194454999Y-114550003D02*
X194454999Y-113759999D01*
X213982301Y-107327699D02*
X214630000Y-106680000D01*
X183420001Y-125585001D02*
X194454999Y-114550003D01*
X181465001Y-125585001D02*
X183420001Y-125585001D01*
X180340000Y-124460000D02*
X181465001Y-125585001D01*
X215277699Y-99707699D02*
X214630000Y-99060000D01*
X215096897Y-110192701D02*
X215602701Y-109686897D01*
X215602701Y-109686897D02*
X215602701Y-100032701D01*
X214757701Y-110192701D02*
X215096897Y-110192701D01*
X210650402Y-114300000D02*
X214757701Y-110192701D01*
X215602701Y-100032701D02*
X215277699Y-99707699D01*
X195580000Y-114300000D02*
X210650402Y-114300000D01*
X215277699Y-97167699D02*
X214630000Y-96520000D01*
X216052711Y-97942711D02*
X215277699Y-97167699D01*
X216052711Y-111776887D02*
X216052711Y-97942711D01*
X210989598Y-116840000D02*
X216052711Y-111776887D01*
X195580000Y-116840000D02*
X210989598Y-116840000D01*
X213657299Y-100627299D02*
X213982301Y-100952301D01*
X213657299Y-96053103D02*
X213657299Y-100627299D01*
X213982301Y-100952301D02*
X214630000Y-101600000D01*
X214163103Y-95547299D02*
X213657299Y-96053103D01*
X215096897Y-95547299D02*
X214163103Y-95547299D01*
X216502721Y-96953123D02*
X215096897Y-95547299D01*
X216502721Y-111963287D02*
X216502721Y-96953123D01*
X209086008Y-119380000D02*
X216502721Y-111963287D01*
X195580000Y-119380000D02*
X209086008Y-119380000D01*
X215277699Y-92087699D02*
X214630000Y-91440000D01*
X216952731Y-93762731D02*
X215277699Y-92087699D01*
X209272409Y-119830009D02*
X216952731Y-112149687D01*
X205289991Y-119830009D02*
X209272409Y-119830009D01*
X216952731Y-112149687D02*
X216952731Y-93762731D01*
X195580000Y-129540000D02*
X205289991Y-119830009D01*
M02*
