G04 #@! TF.GenerationSoftware,KiCad,Pcbnew,(5.1.5-0-10_14)*
G04 #@! TF.CreationDate,2020-01-09T16:24:32-05:00*
G04 #@! TF.ProjectId,branchControllerPCB,6272616e-6368-4436-9f6e-74726f6c6c65,rev?*
G04 #@! TF.SameCoordinates,Original*
G04 #@! TF.FileFunction,Soldermask,Top*
G04 #@! TF.FilePolarity,Negative*
%FSLAX46Y46*%
G04 Gerber Fmt 4.6, Leading zero omitted, Abs format (unit mm)*
G04 Created by KiCad (PCBNEW (5.1.5-0-10_14)) date 2020-01-09 16:24:32*
%MOMM*%
%LPD*%
G04 APERTURE LIST*
%ADD10C,0.100000*%
G04 APERTURE END LIST*
D10*
G36*
X196431000Y-138011000D02*
G01*
X194729000Y-138011000D01*
X194729000Y-136309000D01*
X196431000Y-136309000D01*
X196431000Y-138011000D01*
G37*
G36*
X180588228Y-136341703D02*
G01*
X180743100Y-136405853D01*
X180882481Y-136498985D01*
X181001015Y-136617519D01*
X181094147Y-136756900D01*
X181158297Y-136911772D01*
X181191000Y-137076184D01*
X181191000Y-137243816D01*
X181158297Y-137408228D01*
X181094147Y-137563100D01*
X181001015Y-137702481D01*
X180882481Y-137821015D01*
X180743100Y-137914147D01*
X180588228Y-137978297D01*
X180423816Y-138011000D01*
X180256184Y-138011000D01*
X180091772Y-137978297D01*
X179936900Y-137914147D01*
X179797519Y-137821015D01*
X179678985Y-137702481D01*
X179585853Y-137563100D01*
X179521703Y-137408228D01*
X179489000Y-137243816D01*
X179489000Y-137076184D01*
X179521703Y-136911772D01*
X179585853Y-136756900D01*
X179678985Y-136617519D01*
X179797519Y-136498985D01*
X179936900Y-136405853D01*
X180091772Y-136341703D01*
X180256184Y-136309000D01*
X180423816Y-136309000D01*
X180588228Y-136341703D01*
G37*
G36*
X180588228Y-133801703D02*
G01*
X180743100Y-133865853D01*
X180882481Y-133958985D01*
X181001015Y-134077519D01*
X181094147Y-134216900D01*
X181158297Y-134371772D01*
X181191000Y-134536184D01*
X181191000Y-134703816D01*
X181158297Y-134868228D01*
X181094147Y-135023100D01*
X181001015Y-135162481D01*
X180882481Y-135281015D01*
X180743100Y-135374147D01*
X180588228Y-135438297D01*
X180423816Y-135471000D01*
X180256184Y-135471000D01*
X180091772Y-135438297D01*
X179936900Y-135374147D01*
X179797519Y-135281015D01*
X179678985Y-135162481D01*
X179585853Y-135023100D01*
X179521703Y-134868228D01*
X179489000Y-134703816D01*
X179489000Y-134536184D01*
X179521703Y-134371772D01*
X179585853Y-134216900D01*
X179678985Y-134077519D01*
X179797519Y-133958985D01*
X179936900Y-133865853D01*
X180091772Y-133801703D01*
X180256184Y-133769000D01*
X180423816Y-133769000D01*
X180588228Y-133801703D01*
G37*
G36*
X195828228Y-133801703D02*
G01*
X195983100Y-133865853D01*
X196122481Y-133958985D01*
X196241015Y-134077519D01*
X196334147Y-134216900D01*
X196398297Y-134371772D01*
X196431000Y-134536184D01*
X196431000Y-134703816D01*
X196398297Y-134868228D01*
X196334147Y-135023100D01*
X196241015Y-135162481D01*
X196122481Y-135281015D01*
X195983100Y-135374147D01*
X195828228Y-135438297D01*
X195663816Y-135471000D01*
X195496184Y-135471000D01*
X195331772Y-135438297D01*
X195176900Y-135374147D01*
X195037519Y-135281015D01*
X194918985Y-135162481D01*
X194825853Y-135023100D01*
X194761703Y-134868228D01*
X194729000Y-134703816D01*
X194729000Y-134536184D01*
X194761703Y-134371772D01*
X194825853Y-134216900D01*
X194918985Y-134077519D01*
X195037519Y-133958985D01*
X195176900Y-133865853D01*
X195331772Y-133801703D01*
X195496184Y-133769000D01*
X195663816Y-133769000D01*
X195828228Y-133801703D01*
G37*
G36*
X183128228Y-133801703D02*
G01*
X183283100Y-133865853D01*
X183422481Y-133958985D01*
X183541015Y-134077519D01*
X183634147Y-134216900D01*
X183698297Y-134371772D01*
X183731000Y-134536184D01*
X183731000Y-134703816D01*
X183698297Y-134868228D01*
X183634147Y-135023100D01*
X183541015Y-135162481D01*
X183422481Y-135281015D01*
X183283100Y-135374147D01*
X183128228Y-135438297D01*
X182963816Y-135471000D01*
X182796184Y-135471000D01*
X182631772Y-135438297D01*
X182476900Y-135374147D01*
X182337519Y-135281015D01*
X182218985Y-135162481D01*
X182125853Y-135023100D01*
X182061703Y-134868228D01*
X182029000Y-134703816D01*
X182029000Y-134536184D01*
X182061703Y-134371772D01*
X182125853Y-134216900D01*
X182218985Y-134077519D01*
X182337519Y-133958985D01*
X182476900Y-133865853D01*
X182631772Y-133801703D01*
X182796184Y-133769000D01*
X182963816Y-133769000D01*
X183128228Y-133801703D01*
G37*
G36*
X237843690Y-132559478D02*
G01*
X237971780Y-132584957D01*
X238213097Y-132684914D01*
X238430276Y-132830029D01*
X238614971Y-133014724D01*
X238760086Y-133231903D01*
X238860043Y-133473220D01*
X238911000Y-133729400D01*
X238911000Y-133990600D01*
X238860043Y-134246780D01*
X238789363Y-134417416D01*
X238760087Y-134488095D01*
X238615948Y-134703815D01*
X238614971Y-134705276D01*
X238430276Y-134889971D01*
X238213097Y-135035086D01*
X237971780Y-135135043D01*
X237843690Y-135160522D01*
X237715601Y-135186000D01*
X237454399Y-135186000D01*
X237326310Y-135160522D01*
X237198220Y-135135043D01*
X236956903Y-135035086D01*
X236739724Y-134889971D01*
X236555029Y-134705276D01*
X236554053Y-134703815D01*
X236409913Y-134488095D01*
X236380637Y-134417416D01*
X236309957Y-134246780D01*
X236259000Y-133990600D01*
X236259000Y-133729400D01*
X236309957Y-133473220D01*
X236409914Y-133231903D01*
X236555029Y-133014724D01*
X236739724Y-132830029D01*
X236956903Y-132684914D01*
X237198220Y-132584957D01*
X237326310Y-132559478D01*
X237454399Y-132534000D01*
X237715601Y-132534000D01*
X237843690Y-132559478D01*
G37*
G36*
X202093690Y-132559478D02*
G01*
X202221780Y-132584957D01*
X202463097Y-132684914D01*
X202680276Y-132830029D01*
X202864971Y-133014724D01*
X203010086Y-133231903D01*
X203110043Y-133473220D01*
X203161000Y-133729400D01*
X203161000Y-133990600D01*
X203110043Y-134246780D01*
X203039363Y-134417416D01*
X203010087Y-134488095D01*
X202865948Y-134703815D01*
X202864971Y-134705276D01*
X202680276Y-134889971D01*
X202463097Y-135035086D01*
X202221780Y-135135043D01*
X202093690Y-135160522D01*
X201965601Y-135186000D01*
X201704399Y-135186000D01*
X201576310Y-135160522D01*
X201448220Y-135135043D01*
X201206903Y-135035086D01*
X200989724Y-134889971D01*
X200805029Y-134705276D01*
X200804053Y-134703815D01*
X200659913Y-134488095D01*
X200630637Y-134417416D01*
X200559957Y-134246780D01*
X200509000Y-133990600D01*
X200509000Y-133729400D01*
X200559957Y-133473220D01*
X200659914Y-133231903D01*
X200805029Y-133014724D01*
X200989724Y-132830029D01*
X201206903Y-132684914D01*
X201448220Y-132584957D01*
X201576310Y-132559478D01*
X201704399Y-132534000D01*
X201965601Y-132534000D01*
X202093690Y-132559478D01*
G37*
G36*
X217523690Y-132559478D02*
G01*
X217651780Y-132584957D01*
X217893097Y-132684914D01*
X218110276Y-132830029D01*
X218294971Y-133014724D01*
X218440086Y-133231903D01*
X218540043Y-133473220D01*
X218591000Y-133729400D01*
X218591000Y-133990600D01*
X218540043Y-134246780D01*
X218469363Y-134417416D01*
X218440087Y-134488095D01*
X218295948Y-134703815D01*
X218294971Y-134705276D01*
X218110276Y-134889971D01*
X217893097Y-135035086D01*
X217651780Y-135135043D01*
X217523690Y-135160522D01*
X217395601Y-135186000D01*
X217134399Y-135186000D01*
X217006310Y-135160522D01*
X216878220Y-135135043D01*
X216636903Y-135035086D01*
X216419724Y-134889971D01*
X216235029Y-134705276D01*
X216234053Y-134703815D01*
X216089913Y-134488095D01*
X216060637Y-134417416D01*
X215989957Y-134246780D01*
X215939000Y-133990600D01*
X215939000Y-133729400D01*
X215989957Y-133473220D01*
X216089914Y-133231903D01*
X216235029Y-133014724D01*
X216419724Y-132830029D01*
X216636903Y-132684914D01*
X216878220Y-132584957D01*
X217006310Y-132559478D01*
X217134399Y-132534000D01*
X217395601Y-132534000D01*
X217523690Y-132559478D01*
G37*
G36*
X222413690Y-132559478D02*
G01*
X222541780Y-132584957D01*
X222783097Y-132684914D01*
X223000276Y-132830029D01*
X223184971Y-133014724D01*
X223330086Y-133231903D01*
X223430043Y-133473220D01*
X223481000Y-133729400D01*
X223481000Y-133990600D01*
X223430043Y-134246780D01*
X223359363Y-134417416D01*
X223330087Y-134488095D01*
X223185948Y-134703815D01*
X223184971Y-134705276D01*
X223000276Y-134889971D01*
X222783097Y-135035086D01*
X222541780Y-135135043D01*
X222413690Y-135160522D01*
X222285601Y-135186000D01*
X222024399Y-135186000D01*
X221896310Y-135160522D01*
X221768220Y-135135043D01*
X221526903Y-135035086D01*
X221309724Y-134889971D01*
X221125029Y-134705276D01*
X221124053Y-134703815D01*
X220979913Y-134488095D01*
X220950637Y-134417416D01*
X220879957Y-134246780D01*
X220829000Y-133990600D01*
X220829000Y-133729400D01*
X220879957Y-133473220D01*
X220979914Y-133231903D01*
X221125029Y-133014724D01*
X221309724Y-132830029D01*
X221526903Y-132684914D01*
X221768220Y-132584957D01*
X221896310Y-132559478D01*
X222024399Y-132534000D01*
X222285601Y-132534000D01*
X222413690Y-132559478D01*
G37*
G36*
X172333500Y-132963500D02*
G01*
X170566500Y-132963500D01*
X170566500Y-131196500D01*
X172333500Y-131196500D01*
X172333500Y-132963500D01*
G37*
G36*
X152013500Y-132963500D02*
G01*
X150246500Y-132963500D01*
X150246500Y-131196500D01*
X152013500Y-131196500D01*
X152013500Y-132963500D01*
G37*
G36*
X195828228Y-131261703D02*
G01*
X195983100Y-131325853D01*
X196122481Y-131418985D01*
X196241015Y-131537519D01*
X196334147Y-131676900D01*
X196398297Y-131831772D01*
X196431000Y-131996184D01*
X196431000Y-132163816D01*
X196398297Y-132328228D01*
X196334147Y-132483100D01*
X196241015Y-132622481D01*
X196122481Y-132741015D01*
X195983100Y-132834147D01*
X195828228Y-132898297D01*
X195663816Y-132931000D01*
X195496184Y-132931000D01*
X195331772Y-132898297D01*
X195176900Y-132834147D01*
X195037519Y-132741015D01*
X194918985Y-132622481D01*
X194825853Y-132483100D01*
X194761703Y-132328228D01*
X194729000Y-132163816D01*
X194729000Y-131996184D01*
X194761703Y-131831772D01*
X194825853Y-131676900D01*
X194918985Y-131537519D01*
X195037519Y-131418985D01*
X195176900Y-131325853D01*
X195331772Y-131261703D01*
X195496184Y-131229000D01*
X195663816Y-131229000D01*
X195828228Y-131261703D01*
G37*
G36*
X180588228Y-131261703D02*
G01*
X180743100Y-131325853D01*
X180882481Y-131418985D01*
X181001015Y-131537519D01*
X181094147Y-131676900D01*
X181158297Y-131831772D01*
X181191000Y-131996184D01*
X181191000Y-132163816D01*
X181158297Y-132328228D01*
X181094147Y-132483100D01*
X181001015Y-132622481D01*
X180882481Y-132741015D01*
X180743100Y-132834147D01*
X180588228Y-132898297D01*
X180423816Y-132931000D01*
X180256184Y-132931000D01*
X180091772Y-132898297D01*
X179936900Y-132834147D01*
X179797519Y-132741015D01*
X179678985Y-132622481D01*
X179585853Y-132483100D01*
X179521703Y-132328228D01*
X179489000Y-132163816D01*
X179489000Y-131996184D01*
X179521703Y-131831772D01*
X179585853Y-131676900D01*
X179678985Y-131537519D01*
X179797519Y-131418985D01*
X179936900Y-131325853D01*
X180091772Y-131261703D01*
X180256184Y-131229000D01*
X180423816Y-131229000D01*
X180588228Y-131261703D01*
G37*
G36*
X235960256Y-129201298D02*
G01*
X236066579Y-129222447D01*
X236367042Y-129346903D01*
X236637451Y-129527585D01*
X236867415Y-129757549D01*
X237048097Y-130027958D01*
X237172553Y-130328421D01*
X237236000Y-130647391D01*
X237236000Y-130972609D01*
X237172553Y-131291579D01*
X237048097Y-131592042D01*
X236867415Y-131862451D01*
X236637451Y-132092415D01*
X236367042Y-132273097D01*
X236066579Y-132397553D01*
X235960256Y-132418702D01*
X235747611Y-132461000D01*
X235422389Y-132461000D01*
X235209744Y-132418702D01*
X235103421Y-132397553D01*
X234802958Y-132273097D01*
X234532549Y-132092415D01*
X234302585Y-131862451D01*
X234121903Y-131592042D01*
X233997447Y-131291579D01*
X233934000Y-130972609D01*
X233934000Y-130647391D01*
X233997447Y-130328421D01*
X234121903Y-130027958D01*
X234302585Y-129757549D01*
X234532549Y-129527585D01*
X234802958Y-129346903D01*
X235103421Y-129222447D01*
X235209744Y-129201298D01*
X235422389Y-129159000D01*
X235747611Y-129159000D01*
X235960256Y-129201298D01*
G37*
G36*
X224530256Y-129201298D02*
G01*
X224636579Y-129222447D01*
X224937042Y-129346903D01*
X225207451Y-129527585D01*
X225437415Y-129757549D01*
X225618097Y-130027958D01*
X225742553Y-130328421D01*
X225806000Y-130647391D01*
X225806000Y-130972609D01*
X225742553Y-131291579D01*
X225618097Y-131592042D01*
X225437415Y-131862451D01*
X225207451Y-132092415D01*
X224937042Y-132273097D01*
X224636579Y-132397553D01*
X224530256Y-132418702D01*
X224317611Y-132461000D01*
X223992389Y-132461000D01*
X223779744Y-132418702D01*
X223673421Y-132397553D01*
X223372958Y-132273097D01*
X223102549Y-132092415D01*
X222872585Y-131862451D01*
X222691903Y-131592042D01*
X222567447Y-131291579D01*
X222504000Y-130972609D01*
X222504000Y-130647391D01*
X222567447Y-130328421D01*
X222691903Y-130027958D01*
X222872585Y-129757549D01*
X223102549Y-129527585D01*
X223372958Y-129346903D01*
X223673421Y-129222447D01*
X223779744Y-129201298D01*
X223992389Y-129159000D01*
X224317611Y-129159000D01*
X224530256Y-129201298D01*
G37*
G36*
X215640256Y-129201298D02*
G01*
X215746579Y-129222447D01*
X216047042Y-129346903D01*
X216317451Y-129527585D01*
X216547415Y-129757549D01*
X216728097Y-130027958D01*
X216852553Y-130328421D01*
X216916000Y-130647391D01*
X216916000Y-130972609D01*
X216852553Y-131291579D01*
X216728097Y-131592042D01*
X216547415Y-131862451D01*
X216317451Y-132092415D01*
X216047042Y-132273097D01*
X215746579Y-132397553D01*
X215640256Y-132418702D01*
X215427611Y-132461000D01*
X215102389Y-132461000D01*
X214889744Y-132418702D01*
X214783421Y-132397553D01*
X214482958Y-132273097D01*
X214212549Y-132092415D01*
X213982585Y-131862451D01*
X213801903Y-131592042D01*
X213677447Y-131291579D01*
X213614000Y-130972609D01*
X213614000Y-130647391D01*
X213677447Y-130328421D01*
X213801903Y-130027958D01*
X213982585Y-129757549D01*
X214212549Y-129527585D01*
X214482958Y-129346903D01*
X214783421Y-129222447D01*
X214889744Y-129201298D01*
X215102389Y-129159000D01*
X215427611Y-129159000D01*
X215640256Y-129201298D01*
G37*
G36*
X204210256Y-129201298D02*
G01*
X204316579Y-129222447D01*
X204617042Y-129346903D01*
X204887451Y-129527585D01*
X205117415Y-129757549D01*
X205298097Y-130027958D01*
X205422553Y-130328421D01*
X205486000Y-130647391D01*
X205486000Y-130972609D01*
X205422553Y-131291579D01*
X205298097Y-131592042D01*
X205117415Y-131862451D01*
X204887451Y-132092415D01*
X204617042Y-132273097D01*
X204316579Y-132397553D01*
X204210256Y-132418702D01*
X203997611Y-132461000D01*
X203672389Y-132461000D01*
X203459744Y-132418702D01*
X203353421Y-132397553D01*
X203052958Y-132273097D01*
X202782549Y-132092415D01*
X202552585Y-131862451D01*
X202371903Y-131592042D01*
X202247447Y-131291579D01*
X202184000Y-130972609D01*
X202184000Y-130647391D01*
X202247447Y-130328421D01*
X202371903Y-130027958D01*
X202552585Y-129757549D01*
X202782549Y-129527585D01*
X203052958Y-129346903D01*
X203353421Y-129222447D01*
X203459744Y-129201298D01*
X203672389Y-129159000D01*
X203997611Y-129159000D01*
X204210256Y-129201298D01*
G37*
G36*
X188251981Y-129847468D02*
G01*
X188434151Y-129922926D01*
X188598100Y-130032473D01*
X188737527Y-130171900D01*
X188847074Y-130335849D01*
X188922532Y-130518019D01*
X188961000Y-130711410D01*
X188961000Y-130908590D01*
X188922532Y-131101981D01*
X188847074Y-131284151D01*
X188737527Y-131448100D01*
X188598100Y-131587527D01*
X188434151Y-131697074D01*
X188251981Y-131772532D01*
X188058591Y-131811000D01*
X187861409Y-131811000D01*
X187668019Y-131772532D01*
X187485849Y-131697074D01*
X187321900Y-131587527D01*
X187182473Y-131448100D01*
X187072926Y-131284151D01*
X186997468Y-131101981D01*
X186959000Y-130908590D01*
X186959000Y-130711410D01*
X186997468Y-130518019D01*
X187072926Y-130335849D01*
X187182473Y-130171900D01*
X187321900Y-130032473D01*
X187485849Y-129922926D01*
X187668019Y-129847468D01*
X187861409Y-129809000D01*
X188058591Y-129809000D01*
X188251981Y-129847468D01*
G37*
G36*
X171650810Y-128679135D02*
G01*
X171707707Y-128690452D01*
X171868494Y-128757052D01*
X171868496Y-128757053D01*
X172013196Y-128853738D01*
X172136262Y-128976804D01*
X172232947Y-129121504D01*
X172232948Y-129121506D01*
X172299548Y-129282293D01*
X172333500Y-129452983D01*
X172333500Y-129627017D01*
X172299548Y-129797707D01*
X172239324Y-129943100D01*
X172232947Y-129958496D01*
X172136262Y-130103196D01*
X172013196Y-130226262D01*
X171868496Y-130322947D01*
X171868495Y-130322948D01*
X171868494Y-130322948D01*
X171707707Y-130389548D01*
X171650810Y-130400865D01*
X171537019Y-130423500D01*
X171362981Y-130423500D01*
X171249190Y-130400865D01*
X171192293Y-130389548D01*
X171031506Y-130322948D01*
X171031505Y-130322948D01*
X171031504Y-130322947D01*
X170886804Y-130226262D01*
X170763738Y-130103196D01*
X170667053Y-129958496D01*
X170660676Y-129943100D01*
X170600452Y-129797707D01*
X170566500Y-129627017D01*
X170566500Y-129452983D01*
X170600452Y-129282293D01*
X170667052Y-129121506D01*
X170667053Y-129121504D01*
X170763738Y-128976804D01*
X170886804Y-128853738D01*
X171031504Y-128757053D01*
X171031506Y-128757052D01*
X171192293Y-128690452D01*
X171249190Y-128679135D01*
X171362981Y-128656500D01*
X171537019Y-128656500D01*
X171650810Y-128679135D01*
G37*
G36*
X151330810Y-128679135D02*
G01*
X151387707Y-128690452D01*
X151548494Y-128757052D01*
X151548496Y-128757053D01*
X151693196Y-128853738D01*
X151816262Y-128976804D01*
X151912947Y-129121504D01*
X151912948Y-129121506D01*
X151979548Y-129282293D01*
X152013500Y-129452983D01*
X152013500Y-129627017D01*
X151979548Y-129797707D01*
X151919324Y-129943100D01*
X151912947Y-129958496D01*
X151816262Y-130103196D01*
X151693196Y-130226262D01*
X151548496Y-130322947D01*
X151548495Y-130322948D01*
X151548494Y-130322948D01*
X151387707Y-130389548D01*
X151330810Y-130400865D01*
X151217019Y-130423500D01*
X151042981Y-130423500D01*
X150929190Y-130400865D01*
X150872293Y-130389548D01*
X150711506Y-130322948D01*
X150711505Y-130322948D01*
X150711504Y-130322947D01*
X150566804Y-130226262D01*
X150443738Y-130103196D01*
X150347053Y-129958496D01*
X150340676Y-129943100D01*
X150280452Y-129797707D01*
X150246500Y-129627017D01*
X150246500Y-129452983D01*
X150280452Y-129282293D01*
X150347052Y-129121506D01*
X150347053Y-129121504D01*
X150443738Y-128976804D01*
X150566804Y-128853738D01*
X150711504Y-128757053D01*
X150711506Y-128757052D01*
X150872293Y-128690452D01*
X150929190Y-128679135D01*
X151042981Y-128656500D01*
X151217019Y-128656500D01*
X151330810Y-128679135D01*
G37*
G36*
X183128228Y-128721703D02*
G01*
X183283100Y-128785853D01*
X183422481Y-128878985D01*
X183541015Y-128997519D01*
X183634147Y-129136900D01*
X183698297Y-129291772D01*
X183731000Y-129456184D01*
X183731000Y-129623816D01*
X183698297Y-129788228D01*
X183634147Y-129943100D01*
X183541015Y-130082481D01*
X183422481Y-130201015D01*
X183283100Y-130294147D01*
X183128228Y-130358297D01*
X182963816Y-130391000D01*
X182796184Y-130391000D01*
X182631772Y-130358297D01*
X182476900Y-130294147D01*
X182337519Y-130201015D01*
X182218985Y-130082481D01*
X182125853Y-129943100D01*
X182061703Y-129788228D01*
X182029000Y-129623816D01*
X182029000Y-129456184D01*
X182061703Y-129291772D01*
X182125853Y-129136900D01*
X182218985Y-128997519D01*
X182337519Y-128878985D01*
X182476900Y-128785853D01*
X182631772Y-128721703D01*
X182796184Y-128689000D01*
X182963816Y-128689000D01*
X183128228Y-128721703D01*
G37*
G36*
X195828228Y-128721703D02*
G01*
X195983100Y-128785853D01*
X196122481Y-128878985D01*
X196241015Y-128997519D01*
X196334147Y-129136900D01*
X196398297Y-129291772D01*
X196431000Y-129456184D01*
X196431000Y-129623816D01*
X196398297Y-129788228D01*
X196334147Y-129943100D01*
X196241015Y-130082481D01*
X196122481Y-130201015D01*
X195983100Y-130294147D01*
X195828228Y-130358297D01*
X195663816Y-130391000D01*
X195496184Y-130391000D01*
X195331772Y-130358297D01*
X195176900Y-130294147D01*
X195037519Y-130201015D01*
X194918985Y-130082481D01*
X194825853Y-129943100D01*
X194761703Y-129788228D01*
X194729000Y-129623816D01*
X194729000Y-129456184D01*
X194761703Y-129291772D01*
X194825853Y-129136900D01*
X194918985Y-128997519D01*
X195037519Y-128878985D01*
X195176900Y-128785853D01*
X195331772Y-128721703D01*
X195496184Y-128689000D01*
X195663816Y-128689000D01*
X195828228Y-128721703D01*
G37*
G36*
X180588228Y-128721703D02*
G01*
X180743100Y-128785853D01*
X180882481Y-128878985D01*
X181001015Y-128997519D01*
X181094147Y-129136900D01*
X181158297Y-129291772D01*
X181191000Y-129456184D01*
X181191000Y-129623816D01*
X181158297Y-129788228D01*
X181094147Y-129943100D01*
X181001015Y-130082481D01*
X180882481Y-130201015D01*
X180743100Y-130294147D01*
X180588228Y-130358297D01*
X180423816Y-130391000D01*
X180256184Y-130391000D01*
X180091772Y-130358297D01*
X179936900Y-130294147D01*
X179797519Y-130201015D01*
X179678985Y-130082481D01*
X179585853Y-129943100D01*
X179521703Y-129788228D01*
X179489000Y-129623816D01*
X179489000Y-129456184D01*
X179521703Y-129291772D01*
X179585853Y-129136900D01*
X179678985Y-128997519D01*
X179797519Y-128878985D01*
X179936900Y-128785853D01*
X180091772Y-128721703D01*
X180256184Y-128689000D01*
X180423816Y-128689000D01*
X180588228Y-128721703D01*
G37*
G36*
X188251981Y-126037468D02*
G01*
X188434151Y-126112926D01*
X188598100Y-126222473D01*
X188737527Y-126361900D01*
X188847074Y-126525849D01*
X188922532Y-126708019D01*
X188961000Y-126901410D01*
X188961000Y-127098590D01*
X188922532Y-127291981D01*
X188847074Y-127474151D01*
X188737527Y-127638100D01*
X188598100Y-127777527D01*
X188434151Y-127887074D01*
X188251981Y-127962532D01*
X188058591Y-128001000D01*
X187861409Y-128001000D01*
X187668019Y-127962532D01*
X187485849Y-127887074D01*
X187321900Y-127777527D01*
X187182473Y-127638100D01*
X187072926Y-127474151D01*
X186997468Y-127291981D01*
X186959000Y-127098590D01*
X186959000Y-126901410D01*
X186997468Y-126708019D01*
X187072926Y-126525849D01*
X187182473Y-126361900D01*
X187321900Y-126222473D01*
X187485849Y-126112926D01*
X187668019Y-126037468D01*
X187861409Y-125999000D01*
X188058591Y-125999000D01*
X188251981Y-126037468D01*
G37*
G36*
X151330810Y-126139135D02*
G01*
X151387707Y-126150452D01*
X151548494Y-126217052D01*
X151548496Y-126217053D01*
X151693196Y-126313738D01*
X151816262Y-126436804D01*
X151912947Y-126581504D01*
X151912948Y-126581506D01*
X151979548Y-126742293D01*
X152013500Y-126912983D01*
X152013500Y-127087017D01*
X151979548Y-127257707D01*
X151919324Y-127403100D01*
X151912947Y-127418496D01*
X151816262Y-127563196D01*
X151693196Y-127686262D01*
X151548496Y-127782947D01*
X151548495Y-127782948D01*
X151548494Y-127782948D01*
X151387707Y-127849548D01*
X151330810Y-127860865D01*
X151217019Y-127883500D01*
X151042981Y-127883500D01*
X150929190Y-127860865D01*
X150872293Y-127849548D01*
X150711506Y-127782948D01*
X150711505Y-127782948D01*
X150711504Y-127782947D01*
X150566804Y-127686262D01*
X150443738Y-127563196D01*
X150347053Y-127418496D01*
X150340676Y-127403100D01*
X150280452Y-127257707D01*
X150246500Y-127087017D01*
X150246500Y-126912983D01*
X150280452Y-126742293D01*
X150347052Y-126581506D01*
X150347053Y-126581504D01*
X150443738Y-126436804D01*
X150566804Y-126313738D01*
X150711504Y-126217053D01*
X150711506Y-126217052D01*
X150872293Y-126150452D01*
X150929190Y-126139135D01*
X151042981Y-126116500D01*
X151217019Y-126116500D01*
X151330810Y-126139135D01*
G37*
G36*
X171650810Y-126139135D02*
G01*
X171707707Y-126150452D01*
X171868494Y-126217052D01*
X171868496Y-126217053D01*
X172013196Y-126313738D01*
X172136262Y-126436804D01*
X172232947Y-126581504D01*
X172232948Y-126581506D01*
X172299548Y-126742293D01*
X172333500Y-126912983D01*
X172333500Y-127087017D01*
X172299548Y-127257707D01*
X172239324Y-127403100D01*
X172232947Y-127418496D01*
X172136262Y-127563196D01*
X172013196Y-127686262D01*
X171868496Y-127782947D01*
X171868495Y-127782948D01*
X171868494Y-127782948D01*
X171707707Y-127849548D01*
X171650810Y-127860865D01*
X171537019Y-127883500D01*
X171362981Y-127883500D01*
X171249190Y-127860865D01*
X171192293Y-127849548D01*
X171031506Y-127782948D01*
X171031505Y-127782948D01*
X171031504Y-127782947D01*
X170886804Y-127686262D01*
X170763738Y-127563196D01*
X170667053Y-127418496D01*
X170660676Y-127403100D01*
X170600452Y-127257707D01*
X170566500Y-127087017D01*
X170566500Y-126912983D01*
X170600452Y-126742293D01*
X170667052Y-126581506D01*
X170667053Y-126581504D01*
X170763738Y-126436804D01*
X170886804Y-126313738D01*
X171031504Y-126217053D01*
X171031506Y-126217052D01*
X171192293Y-126150452D01*
X171249190Y-126139135D01*
X171362981Y-126116500D01*
X171537019Y-126116500D01*
X171650810Y-126139135D01*
G37*
G36*
X180588228Y-126181703D02*
G01*
X180743100Y-126245853D01*
X180882481Y-126338985D01*
X181001015Y-126457519D01*
X181094147Y-126596900D01*
X181158297Y-126751772D01*
X181191000Y-126916184D01*
X181191000Y-127083816D01*
X181158297Y-127248228D01*
X181094147Y-127403100D01*
X181001015Y-127542481D01*
X180882481Y-127661015D01*
X180743100Y-127754147D01*
X180588228Y-127818297D01*
X180423816Y-127851000D01*
X180256184Y-127851000D01*
X180091772Y-127818297D01*
X179936900Y-127754147D01*
X179797519Y-127661015D01*
X179678985Y-127542481D01*
X179585853Y-127403100D01*
X179521703Y-127248228D01*
X179489000Y-127083816D01*
X179489000Y-126916184D01*
X179521703Y-126751772D01*
X179585853Y-126596900D01*
X179678985Y-126457519D01*
X179797519Y-126338985D01*
X179936900Y-126245853D01*
X180091772Y-126181703D01*
X180256184Y-126149000D01*
X180423816Y-126149000D01*
X180588228Y-126181703D01*
G37*
G36*
X183128228Y-126181703D02*
G01*
X183283100Y-126245853D01*
X183422481Y-126338985D01*
X183541015Y-126457519D01*
X183634147Y-126596900D01*
X183698297Y-126751772D01*
X183731000Y-126916184D01*
X183731000Y-127083816D01*
X183698297Y-127248228D01*
X183634147Y-127403100D01*
X183541015Y-127542481D01*
X183422481Y-127661015D01*
X183283100Y-127754147D01*
X183128228Y-127818297D01*
X182963816Y-127851000D01*
X182796184Y-127851000D01*
X182631772Y-127818297D01*
X182476900Y-127754147D01*
X182337519Y-127661015D01*
X182218985Y-127542481D01*
X182125853Y-127403100D01*
X182061703Y-127248228D01*
X182029000Y-127083816D01*
X182029000Y-126916184D01*
X182061703Y-126751772D01*
X182125853Y-126596900D01*
X182218985Y-126457519D01*
X182337519Y-126338985D01*
X182476900Y-126245853D01*
X182631772Y-126181703D01*
X182796184Y-126149000D01*
X182963816Y-126149000D01*
X183128228Y-126181703D01*
G37*
G36*
X195828228Y-126181703D02*
G01*
X195983100Y-126245853D01*
X196122481Y-126338985D01*
X196241015Y-126457519D01*
X196334147Y-126596900D01*
X196398297Y-126751772D01*
X196431000Y-126916184D01*
X196431000Y-127083816D01*
X196398297Y-127248228D01*
X196334147Y-127403100D01*
X196241015Y-127542481D01*
X196122481Y-127661015D01*
X195983100Y-127754147D01*
X195828228Y-127818297D01*
X195663816Y-127851000D01*
X195496184Y-127851000D01*
X195331772Y-127818297D01*
X195176900Y-127754147D01*
X195037519Y-127661015D01*
X194918985Y-127542481D01*
X194825853Y-127403100D01*
X194761703Y-127248228D01*
X194729000Y-127083816D01*
X194729000Y-126916184D01*
X194761703Y-126751772D01*
X194825853Y-126596900D01*
X194918985Y-126457519D01*
X195037519Y-126338985D01*
X195176900Y-126245853D01*
X195331772Y-126181703D01*
X195496184Y-126149000D01*
X195663816Y-126149000D01*
X195828228Y-126181703D01*
G37*
G36*
X171650810Y-123599135D02*
G01*
X171707707Y-123610452D01*
X171868494Y-123677052D01*
X171868496Y-123677053D01*
X172013196Y-123773738D01*
X172136262Y-123896804D01*
X172232947Y-124041504D01*
X172232948Y-124041506D01*
X172299548Y-124202293D01*
X172333500Y-124372983D01*
X172333500Y-124547017D01*
X172299548Y-124717707D01*
X172239324Y-124863100D01*
X172232947Y-124878496D01*
X172136262Y-125023196D01*
X172013196Y-125146262D01*
X171868496Y-125242947D01*
X171868495Y-125242948D01*
X171868494Y-125242948D01*
X171707707Y-125309548D01*
X171650810Y-125320865D01*
X171537019Y-125343500D01*
X171362981Y-125343500D01*
X171249190Y-125320865D01*
X171192293Y-125309548D01*
X171031506Y-125242948D01*
X171031505Y-125242948D01*
X171031504Y-125242947D01*
X170886804Y-125146262D01*
X170763738Y-125023196D01*
X170667053Y-124878496D01*
X170660676Y-124863100D01*
X170600452Y-124717707D01*
X170566500Y-124547017D01*
X170566500Y-124372983D01*
X170600452Y-124202293D01*
X170667052Y-124041506D01*
X170667053Y-124041504D01*
X170763738Y-123896804D01*
X170886804Y-123773738D01*
X171031504Y-123677053D01*
X171031506Y-123677052D01*
X171192293Y-123610452D01*
X171249190Y-123599135D01*
X171362981Y-123576500D01*
X171537019Y-123576500D01*
X171650810Y-123599135D01*
G37*
G36*
X151330810Y-123599135D02*
G01*
X151387707Y-123610452D01*
X151548494Y-123677052D01*
X151548496Y-123677053D01*
X151693196Y-123773738D01*
X151816262Y-123896804D01*
X151912947Y-124041504D01*
X151912948Y-124041506D01*
X151979548Y-124202293D01*
X152013500Y-124372983D01*
X152013500Y-124547017D01*
X151979548Y-124717707D01*
X151919324Y-124863100D01*
X151912947Y-124878496D01*
X151816262Y-125023196D01*
X151693196Y-125146262D01*
X151548496Y-125242947D01*
X151548495Y-125242948D01*
X151548494Y-125242948D01*
X151387707Y-125309548D01*
X151330810Y-125320865D01*
X151217019Y-125343500D01*
X151042981Y-125343500D01*
X150929190Y-125320865D01*
X150872293Y-125309548D01*
X150711506Y-125242948D01*
X150711505Y-125242948D01*
X150711504Y-125242947D01*
X150566804Y-125146262D01*
X150443738Y-125023196D01*
X150347053Y-124878496D01*
X150340676Y-124863100D01*
X150280452Y-124717707D01*
X150246500Y-124547017D01*
X150246500Y-124372983D01*
X150280452Y-124202293D01*
X150347052Y-124041506D01*
X150347053Y-124041504D01*
X150443738Y-123896804D01*
X150566804Y-123773738D01*
X150711504Y-123677053D01*
X150711506Y-123677052D01*
X150872293Y-123610452D01*
X150929190Y-123599135D01*
X151042981Y-123576500D01*
X151217019Y-123576500D01*
X151330810Y-123599135D01*
G37*
G36*
X180588228Y-123641703D02*
G01*
X180743100Y-123705853D01*
X180882481Y-123798985D01*
X181001015Y-123917519D01*
X181094147Y-124056900D01*
X181158297Y-124211772D01*
X181191000Y-124376184D01*
X181191000Y-124543816D01*
X181158297Y-124708228D01*
X181094147Y-124863100D01*
X181001015Y-125002481D01*
X180882481Y-125121015D01*
X180743100Y-125214147D01*
X180588228Y-125278297D01*
X180423816Y-125311000D01*
X180256184Y-125311000D01*
X180091772Y-125278297D01*
X179936900Y-125214147D01*
X179797519Y-125121015D01*
X179678985Y-125002481D01*
X179585853Y-124863100D01*
X179521703Y-124708228D01*
X179489000Y-124543816D01*
X179489000Y-124376184D01*
X179521703Y-124211772D01*
X179585853Y-124056900D01*
X179678985Y-123917519D01*
X179797519Y-123798985D01*
X179936900Y-123705853D01*
X180091772Y-123641703D01*
X180256184Y-123609000D01*
X180423816Y-123609000D01*
X180588228Y-123641703D01*
G37*
G36*
X183128228Y-123641703D02*
G01*
X183283100Y-123705853D01*
X183422481Y-123798985D01*
X183541015Y-123917519D01*
X183634147Y-124056900D01*
X183698297Y-124211772D01*
X183731000Y-124376184D01*
X183731000Y-124543816D01*
X183698297Y-124708228D01*
X183634147Y-124863100D01*
X183541015Y-125002481D01*
X183422481Y-125121015D01*
X183283100Y-125214147D01*
X183128228Y-125278297D01*
X182963816Y-125311000D01*
X182796184Y-125311000D01*
X182631772Y-125278297D01*
X182476900Y-125214147D01*
X182337519Y-125121015D01*
X182218985Y-125002481D01*
X182125853Y-124863100D01*
X182061703Y-124708228D01*
X182029000Y-124543816D01*
X182029000Y-124376184D01*
X182061703Y-124211772D01*
X182125853Y-124056900D01*
X182218985Y-123917519D01*
X182337519Y-123798985D01*
X182476900Y-123705853D01*
X182631772Y-123641703D01*
X182796184Y-123609000D01*
X182963816Y-123609000D01*
X183128228Y-123641703D01*
G37*
G36*
X195828228Y-123641703D02*
G01*
X195983100Y-123705853D01*
X196122481Y-123798985D01*
X196241015Y-123917519D01*
X196334147Y-124056900D01*
X196398297Y-124211772D01*
X196431000Y-124376184D01*
X196431000Y-124543816D01*
X196398297Y-124708228D01*
X196334147Y-124863100D01*
X196241015Y-125002481D01*
X196122481Y-125121015D01*
X195983100Y-125214147D01*
X195828228Y-125278297D01*
X195663816Y-125311000D01*
X195496184Y-125311000D01*
X195331772Y-125278297D01*
X195176900Y-125214147D01*
X195037519Y-125121015D01*
X194918985Y-125002481D01*
X194825853Y-124863100D01*
X194761703Y-124708228D01*
X194729000Y-124543816D01*
X194729000Y-124376184D01*
X194761703Y-124211772D01*
X194825853Y-124056900D01*
X194918985Y-123917519D01*
X195037519Y-123798985D01*
X195176900Y-123705853D01*
X195331772Y-123641703D01*
X195496184Y-123609000D01*
X195663816Y-123609000D01*
X195828228Y-123641703D01*
G37*
G36*
X205860000Y-125215000D02*
G01*
X204350000Y-125215000D01*
X204350000Y-123705000D01*
X205860000Y-123705000D01*
X205860000Y-125215000D01*
G37*
G36*
X207792293Y-123719507D02*
G01*
X207865225Y-123734014D01*
X207922138Y-123757588D01*
X208002626Y-123790927D01*
X208126284Y-123873553D01*
X208231447Y-123978716D01*
X208314073Y-124102374D01*
X208370986Y-124239776D01*
X208400000Y-124385638D01*
X208400000Y-124534362D01*
X208370986Y-124680224D01*
X208314073Y-124817626D01*
X208231447Y-124941284D01*
X208126284Y-125046447D01*
X208002626Y-125129073D01*
X207922138Y-125162412D01*
X207865225Y-125185986D01*
X207792293Y-125200493D01*
X207719362Y-125215000D01*
X207570638Y-125215000D01*
X207497707Y-125200493D01*
X207424775Y-125185986D01*
X207367862Y-125162412D01*
X207287374Y-125129073D01*
X207163716Y-125046447D01*
X207058553Y-124941284D01*
X206975927Y-124817626D01*
X206919014Y-124680224D01*
X206890000Y-124534362D01*
X206890000Y-124385638D01*
X206919014Y-124239776D01*
X206975927Y-124102374D01*
X207058553Y-123978716D01*
X207163716Y-123873553D01*
X207287374Y-123790927D01*
X207367862Y-123757588D01*
X207424775Y-123734014D01*
X207497707Y-123719507D01*
X207570638Y-123705000D01*
X207719362Y-123705000D01*
X207792293Y-123719507D01*
G37*
G36*
X210332293Y-123719507D02*
G01*
X210405225Y-123734014D01*
X210462138Y-123757588D01*
X210542626Y-123790927D01*
X210666284Y-123873553D01*
X210771447Y-123978716D01*
X210854073Y-124102374D01*
X210910986Y-124239776D01*
X210940000Y-124385638D01*
X210940000Y-124534362D01*
X210910986Y-124680224D01*
X210854073Y-124817626D01*
X210771447Y-124941284D01*
X210666284Y-125046447D01*
X210542626Y-125129073D01*
X210462138Y-125162412D01*
X210405225Y-125185986D01*
X210332293Y-125200493D01*
X210259362Y-125215000D01*
X210110638Y-125215000D01*
X210037707Y-125200493D01*
X209964775Y-125185986D01*
X209907862Y-125162412D01*
X209827374Y-125129073D01*
X209703716Y-125046447D01*
X209598553Y-124941284D01*
X209515927Y-124817626D01*
X209459014Y-124680224D01*
X209430000Y-124534362D01*
X209430000Y-124385638D01*
X209459014Y-124239776D01*
X209515927Y-124102374D01*
X209598553Y-123978716D01*
X209703716Y-123873553D01*
X209827374Y-123790927D01*
X209907862Y-123757588D01*
X209964775Y-123734014D01*
X210037707Y-123719507D01*
X210110638Y-123705000D01*
X210259362Y-123705000D01*
X210332293Y-123719507D01*
G37*
G36*
X212872293Y-123719507D02*
G01*
X212945225Y-123734014D01*
X213002138Y-123757588D01*
X213082626Y-123790927D01*
X213206284Y-123873553D01*
X213311447Y-123978716D01*
X213394073Y-124102374D01*
X213450986Y-124239776D01*
X213480000Y-124385638D01*
X213480000Y-124534362D01*
X213450986Y-124680224D01*
X213394073Y-124817626D01*
X213311447Y-124941284D01*
X213206284Y-125046447D01*
X213082626Y-125129073D01*
X213002138Y-125162412D01*
X212945225Y-125185986D01*
X212872293Y-125200493D01*
X212799362Y-125215000D01*
X212650638Y-125215000D01*
X212577707Y-125200493D01*
X212504775Y-125185986D01*
X212447862Y-125162412D01*
X212367374Y-125129073D01*
X212243716Y-125046447D01*
X212138553Y-124941284D01*
X212055927Y-124817626D01*
X211999014Y-124680224D01*
X211970000Y-124534362D01*
X211970000Y-124385638D01*
X211999014Y-124239776D01*
X212055927Y-124102374D01*
X212138553Y-123978716D01*
X212243716Y-123873553D01*
X212367374Y-123790927D01*
X212447862Y-123757588D01*
X212504775Y-123734014D01*
X212577707Y-123719507D01*
X212650638Y-123705000D01*
X212799362Y-123705000D01*
X212872293Y-123719507D01*
G37*
G36*
X226180000Y-125215000D02*
G01*
X224670000Y-125215000D01*
X224670000Y-123705000D01*
X226180000Y-123705000D01*
X226180000Y-125215000D01*
G37*
G36*
X228112293Y-123719507D02*
G01*
X228185225Y-123734014D01*
X228242138Y-123757588D01*
X228322626Y-123790927D01*
X228446284Y-123873553D01*
X228551447Y-123978716D01*
X228634073Y-124102374D01*
X228690986Y-124239776D01*
X228720000Y-124385638D01*
X228720000Y-124534362D01*
X228690986Y-124680224D01*
X228634073Y-124817626D01*
X228551447Y-124941284D01*
X228446284Y-125046447D01*
X228322626Y-125129073D01*
X228242138Y-125162412D01*
X228185225Y-125185986D01*
X228112293Y-125200493D01*
X228039362Y-125215000D01*
X227890638Y-125215000D01*
X227817707Y-125200493D01*
X227744775Y-125185986D01*
X227687862Y-125162412D01*
X227607374Y-125129073D01*
X227483716Y-125046447D01*
X227378553Y-124941284D01*
X227295927Y-124817626D01*
X227239014Y-124680224D01*
X227210000Y-124534362D01*
X227210000Y-124385638D01*
X227239014Y-124239776D01*
X227295927Y-124102374D01*
X227378553Y-123978716D01*
X227483716Y-123873553D01*
X227607374Y-123790927D01*
X227687862Y-123757588D01*
X227744775Y-123734014D01*
X227817707Y-123719507D01*
X227890638Y-123705000D01*
X228039362Y-123705000D01*
X228112293Y-123719507D01*
G37*
G36*
X230652293Y-123719507D02*
G01*
X230725225Y-123734014D01*
X230782138Y-123757588D01*
X230862626Y-123790927D01*
X230986284Y-123873553D01*
X231091447Y-123978716D01*
X231174073Y-124102374D01*
X231230986Y-124239776D01*
X231260000Y-124385638D01*
X231260000Y-124534362D01*
X231230986Y-124680224D01*
X231174073Y-124817626D01*
X231091447Y-124941284D01*
X230986284Y-125046447D01*
X230862626Y-125129073D01*
X230782138Y-125162412D01*
X230725225Y-125185986D01*
X230652293Y-125200493D01*
X230579362Y-125215000D01*
X230430638Y-125215000D01*
X230357707Y-125200493D01*
X230284775Y-125185986D01*
X230227862Y-125162412D01*
X230147374Y-125129073D01*
X230023716Y-125046447D01*
X229918553Y-124941284D01*
X229835927Y-124817626D01*
X229779014Y-124680224D01*
X229750000Y-124534362D01*
X229750000Y-124385638D01*
X229779014Y-124239776D01*
X229835927Y-124102374D01*
X229918553Y-123978716D01*
X230023716Y-123873553D01*
X230147374Y-123790927D01*
X230227862Y-123757588D01*
X230284775Y-123734014D01*
X230357707Y-123719507D01*
X230430638Y-123705000D01*
X230579362Y-123705000D01*
X230652293Y-123719507D01*
G37*
G36*
X233192293Y-123719507D02*
G01*
X233265225Y-123734014D01*
X233322138Y-123757588D01*
X233402626Y-123790927D01*
X233526284Y-123873553D01*
X233631447Y-123978716D01*
X233714073Y-124102374D01*
X233770986Y-124239776D01*
X233800000Y-124385638D01*
X233800000Y-124534362D01*
X233770986Y-124680224D01*
X233714073Y-124817626D01*
X233631447Y-124941284D01*
X233526284Y-125046447D01*
X233402626Y-125129073D01*
X233322138Y-125162412D01*
X233265225Y-125185986D01*
X233192293Y-125200493D01*
X233119362Y-125215000D01*
X232970638Y-125215000D01*
X232897707Y-125200493D01*
X232824775Y-125185986D01*
X232767862Y-125162412D01*
X232687374Y-125129073D01*
X232563716Y-125046447D01*
X232458553Y-124941284D01*
X232375927Y-124817626D01*
X232319014Y-124680224D01*
X232290000Y-124534362D01*
X232290000Y-124385638D01*
X232319014Y-124239776D01*
X232375927Y-124102374D01*
X232458553Y-123978716D01*
X232563716Y-123873553D01*
X232687374Y-123790927D01*
X232767862Y-123757588D01*
X232824775Y-123734014D01*
X232897707Y-123719507D01*
X232970638Y-123705000D01*
X233119362Y-123705000D01*
X233192293Y-123719507D01*
G37*
G36*
X176894903Y-120717075D02*
G01*
X177122571Y-120811378D01*
X177327466Y-120948285D01*
X177501715Y-121122534D01*
X177587505Y-121250928D01*
X177638623Y-121327431D01*
X177732925Y-121555097D01*
X177781000Y-121796786D01*
X177781000Y-122043214D01*
X177732925Y-122284903D01*
X177684719Y-122401284D01*
X177638622Y-122512571D01*
X177501715Y-122717466D01*
X177327466Y-122891715D01*
X177122571Y-123028622D01*
X177122570Y-123028623D01*
X177122569Y-123028623D01*
X176894903Y-123122925D01*
X176653214Y-123171000D01*
X176406786Y-123171000D01*
X176165097Y-123122925D01*
X175937431Y-123028623D01*
X175937430Y-123028623D01*
X175937429Y-123028622D01*
X175732534Y-122891715D01*
X175558285Y-122717466D01*
X175421378Y-122512571D01*
X175375282Y-122401284D01*
X175327075Y-122284903D01*
X175279000Y-122043214D01*
X175279000Y-121796786D01*
X175327075Y-121555097D01*
X175421377Y-121327431D01*
X175472495Y-121250928D01*
X175558285Y-121122534D01*
X175732534Y-120948285D01*
X175937429Y-120811378D01*
X176165097Y-120717075D01*
X176406786Y-120669000D01*
X176653214Y-120669000D01*
X176894903Y-120717075D01*
G37*
G36*
X171650810Y-121059135D02*
G01*
X171707707Y-121070452D01*
X171833444Y-121122534D01*
X171868496Y-121137053D01*
X172013196Y-121233738D01*
X172136262Y-121356804D01*
X172232947Y-121501504D01*
X172232948Y-121501506D01*
X172299548Y-121662293D01*
X172307004Y-121699776D01*
X172333500Y-121832981D01*
X172333500Y-122007019D01*
X172326300Y-122043214D01*
X172299548Y-122177707D01*
X172239324Y-122323100D01*
X172232947Y-122338496D01*
X172136262Y-122483196D01*
X172013196Y-122606262D01*
X171868496Y-122702947D01*
X171868495Y-122702948D01*
X171868494Y-122702948D01*
X171707707Y-122769548D01*
X171650810Y-122780865D01*
X171537019Y-122803500D01*
X171362981Y-122803500D01*
X171249190Y-122780865D01*
X171192293Y-122769548D01*
X171031506Y-122702948D01*
X171031505Y-122702948D01*
X171031504Y-122702947D01*
X170886804Y-122606262D01*
X170763738Y-122483196D01*
X170667053Y-122338496D01*
X170660676Y-122323100D01*
X170600452Y-122177707D01*
X170573700Y-122043214D01*
X170566500Y-122007019D01*
X170566500Y-121832981D01*
X170592996Y-121699776D01*
X170600452Y-121662293D01*
X170667052Y-121501506D01*
X170667053Y-121501504D01*
X170763738Y-121356804D01*
X170886804Y-121233738D01*
X171031504Y-121137053D01*
X171066556Y-121122534D01*
X171192293Y-121070452D01*
X171249190Y-121059135D01*
X171362981Y-121036500D01*
X171537019Y-121036500D01*
X171650810Y-121059135D01*
G37*
G36*
X151330810Y-121059135D02*
G01*
X151387707Y-121070452D01*
X151513444Y-121122534D01*
X151548496Y-121137053D01*
X151693196Y-121233738D01*
X151816262Y-121356804D01*
X151912947Y-121501504D01*
X151912948Y-121501506D01*
X151979548Y-121662293D01*
X151987004Y-121699776D01*
X152013500Y-121832981D01*
X152013500Y-122007019D01*
X152006300Y-122043214D01*
X151979548Y-122177707D01*
X151919324Y-122323100D01*
X151912947Y-122338496D01*
X151816262Y-122483196D01*
X151693196Y-122606262D01*
X151548496Y-122702947D01*
X151548495Y-122702948D01*
X151548494Y-122702948D01*
X151387707Y-122769548D01*
X151330810Y-122780865D01*
X151217019Y-122803500D01*
X151042981Y-122803500D01*
X150929190Y-122780865D01*
X150872293Y-122769548D01*
X150711506Y-122702948D01*
X150711505Y-122702948D01*
X150711504Y-122702947D01*
X150566804Y-122606262D01*
X150443738Y-122483196D01*
X150347053Y-122338496D01*
X150340676Y-122323100D01*
X150280452Y-122177707D01*
X150253700Y-122043214D01*
X150246500Y-122007019D01*
X150246500Y-121832981D01*
X150272996Y-121699776D01*
X150280452Y-121662293D01*
X150347052Y-121501506D01*
X150347053Y-121501504D01*
X150443738Y-121356804D01*
X150566804Y-121233738D01*
X150711504Y-121137053D01*
X150746556Y-121122534D01*
X150872293Y-121070452D01*
X150929190Y-121059135D01*
X151042981Y-121036500D01*
X151217019Y-121036500D01*
X151330810Y-121059135D01*
G37*
G36*
X195828228Y-121101703D02*
G01*
X195983100Y-121165853D01*
X196122481Y-121258985D01*
X196241015Y-121377519D01*
X196334147Y-121516900D01*
X196398297Y-121671772D01*
X196431000Y-121836184D01*
X196431000Y-122003816D01*
X196398297Y-122168228D01*
X196334147Y-122323100D01*
X196241015Y-122462481D01*
X196122481Y-122581015D01*
X195983100Y-122674147D01*
X195828228Y-122738297D01*
X195663816Y-122771000D01*
X195496184Y-122771000D01*
X195331772Y-122738297D01*
X195176900Y-122674147D01*
X195037519Y-122581015D01*
X194918985Y-122462481D01*
X194825853Y-122323100D01*
X194761703Y-122168228D01*
X194729000Y-122003816D01*
X194729000Y-121836184D01*
X194761703Y-121671772D01*
X194825853Y-121516900D01*
X194918985Y-121377519D01*
X195037519Y-121258985D01*
X195176900Y-121165853D01*
X195331772Y-121101703D01*
X195496184Y-121069000D01*
X195663816Y-121069000D01*
X195828228Y-121101703D01*
G37*
G36*
X180588228Y-121101703D02*
G01*
X180743100Y-121165853D01*
X180882481Y-121258985D01*
X181001015Y-121377519D01*
X181094147Y-121516900D01*
X181158297Y-121671772D01*
X181191000Y-121836184D01*
X181191000Y-122003816D01*
X181158297Y-122168228D01*
X181094147Y-122323100D01*
X181001015Y-122462481D01*
X180882481Y-122581015D01*
X180743100Y-122674147D01*
X180588228Y-122738297D01*
X180423816Y-122771000D01*
X180256184Y-122771000D01*
X180091772Y-122738297D01*
X179936900Y-122674147D01*
X179797519Y-122581015D01*
X179678985Y-122462481D01*
X179585853Y-122323100D01*
X179521703Y-122168228D01*
X179489000Y-122003816D01*
X179489000Y-121836184D01*
X179521703Y-121671772D01*
X179585853Y-121516900D01*
X179678985Y-121377519D01*
X179797519Y-121258985D01*
X179936900Y-121165853D01*
X180091772Y-121101703D01*
X180256184Y-121069000D01*
X180423816Y-121069000D01*
X180588228Y-121101703D01*
G37*
G36*
X234462293Y-121179507D02*
G01*
X234535225Y-121194014D01*
X234592138Y-121217588D01*
X234672626Y-121250927D01*
X234796284Y-121333553D01*
X234901447Y-121438716D01*
X234984073Y-121562374D01*
X235040986Y-121699776D01*
X235070000Y-121845638D01*
X235070000Y-121994362D01*
X235040986Y-122140224D01*
X234984073Y-122277626D01*
X234901447Y-122401284D01*
X234796284Y-122506447D01*
X234672626Y-122589073D01*
X234592138Y-122622412D01*
X234535225Y-122645986D01*
X234462293Y-122660493D01*
X234389362Y-122675000D01*
X234240638Y-122675000D01*
X234167707Y-122660493D01*
X234094775Y-122645986D01*
X234037862Y-122622412D01*
X233957374Y-122589073D01*
X233833716Y-122506447D01*
X233728553Y-122401284D01*
X233645927Y-122277626D01*
X233589014Y-122140224D01*
X233560000Y-121994362D01*
X233560000Y-121845638D01*
X233589014Y-121699776D01*
X233645927Y-121562374D01*
X233728553Y-121438716D01*
X233833716Y-121333553D01*
X233957374Y-121250927D01*
X234037862Y-121217588D01*
X234094775Y-121194014D01*
X234167707Y-121179507D01*
X234240638Y-121165000D01*
X234389362Y-121165000D01*
X234462293Y-121179507D01*
G37*
G36*
X226842293Y-121179507D02*
G01*
X226915225Y-121194014D01*
X226972138Y-121217588D01*
X227052626Y-121250927D01*
X227176284Y-121333553D01*
X227281447Y-121438716D01*
X227364073Y-121562374D01*
X227420986Y-121699776D01*
X227450000Y-121845638D01*
X227450000Y-121994362D01*
X227420986Y-122140224D01*
X227364073Y-122277626D01*
X227281447Y-122401284D01*
X227176284Y-122506447D01*
X227052626Y-122589073D01*
X226972138Y-122622412D01*
X226915225Y-122645986D01*
X226842293Y-122660493D01*
X226769362Y-122675000D01*
X226620638Y-122675000D01*
X226547707Y-122660493D01*
X226474775Y-122645986D01*
X226417862Y-122622412D01*
X226337374Y-122589073D01*
X226213716Y-122506447D01*
X226108553Y-122401284D01*
X226025927Y-122277626D01*
X225969014Y-122140224D01*
X225940000Y-121994362D01*
X225940000Y-121845638D01*
X225969014Y-121699776D01*
X226025927Y-121562374D01*
X226108553Y-121438716D01*
X226213716Y-121333553D01*
X226337374Y-121250927D01*
X226417862Y-121217588D01*
X226474775Y-121194014D01*
X226547707Y-121179507D01*
X226620638Y-121165000D01*
X226769362Y-121165000D01*
X226842293Y-121179507D01*
G37*
G36*
X229382293Y-121179507D02*
G01*
X229455225Y-121194014D01*
X229512138Y-121217588D01*
X229592626Y-121250927D01*
X229716284Y-121333553D01*
X229821447Y-121438716D01*
X229904073Y-121562374D01*
X229960986Y-121699776D01*
X229990000Y-121845638D01*
X229990000Y-121994362D01*
X229960986Y-122140224D01*
X229904073Y-122277626D01*
X229821447Y-122401284D01*
X229716284Y-122506447D01*
X229592626Y-122589073D01*
X229512138Y-122622412D01*
X229455225Y-122645986D01*
X229382293Y-122660493D01*
X229309362Y-122675000D01*
X229160638Y-122675000D01*
X229087707Y-122660493D01*
X229014775Y-122645986D01*
X228957862Y-122622412D01*
X228877374Y-122589073D01*
X228753716Y-122506447D01*
X228648553Y-122401284D01*
X228565927Y-122277626D01*
X228509014Y-122140224D01*
X228480000Y-121994362D01*
X228480000Y-121845638D01*
X228509014Y-121699776D01*
X228565927Y-121562374D01*
X228648553Y-121438716D01*
X228753716Y-121333553D01*
X228877374Y-121250927D01*
X228957862Y-121217588D01*
X229014775Y-121194014D01*
X229087707Y-121179507D01*
X229160638Y-121165000D01*
X229309362Y-121165000D01*
X229382293Y-121179507D01*
G37*
G36*
X214142293Y-121179507D02*
G01*
X214215225Y-121194014D01*
X214272138Y-121217588D01*
X214352626Y-121250927D01*
X214476284Y-121333553D01*
X214581447Y-121438716D01*
X214664073Y-121562374D01*
X214720986Y-121699776D01*
X214750000Y-121845638D01*
X214750000Y-121994362D01*
X214720986Y-122140224D01*
X214664073Y-122277626D01*
X214581447Y-122401284D01*
X214476284Y-122506447D01*
X214352626Y-122589073D01*
X214272138Y-122622412D01*
X214215225Y-122645986D01*
X214142293Y-122660493D01*
X214069362Y-122675000D01*
X213920638Y-122675000D01*
X213847707Y-122660493D01*
X213774775Y-122645986D01*
X213717862Y-122622412D01*
X213637374Y-122589073D01*
X213513716Y-122506447D01*
X213408553Y-122401284D01*
X213325927Y-122277626D01*
X213269014Y-122140224D01*
X213240000Y-121994362D01*
X213240000Y-121845638D01*
X213269014Y-121699776D01*
X213325927Y-121562374D01*
X213408553Y-121438716D01*
X213513716Y-121333553D01*
X213637374Y-121250927D01*
X213717862Y-121217588D01*
X213774775Y-121194014D01*
X213847707Y-121179507D01*
X213920638Y-121165000D01*
X214069362Y-121165000D01*
X214142293Y-121179507D01*
G37*
G36*
X206522293Y-121179507D02*
G01*
X206595225Y-121194014D01*
X206652138Y-121217588D01*
X206732626Y-121250927D01*
X206856284Y-121333553D01*
X206961447Y-121438716D01*
X207044073Y-121562374D01*
X207100986Y-121699776D01*
X207130000Y-121845638D01*
X207130000Y-121994362D01*
X207100986Y-122140224D01*
X207044073Y-122277626D01*
X206961447Y-122401284D01*
X206856284Y-122506447D01*
X206732626Y-122589073D01*
X206652138Y-122622412D01*
X206595225Y-122645986D01*
X206522293Y-122660493D01*
X206449362Y-122675000D01*
X206300638Y-122675000D01*
X206227707Y-122660493D01*
X206154775Y-122645986D01*
X206097862Y-122622412D01*
X206017374Y-122589073D01*
X205893716Y-122506447D01*
X205788553Y-122401284D01*
X205705927Y-122277626D01*
X205649014Y-122140224D01*
X205620000Y-121994362D01*
X205620000Y-121845638D01*
X205649014Y-121699776D01*
X205705927Y-121562374D01*
X205788553Y-121438716D01*
X205893716Y-121333553D01*
X206017374Y-121250927D01*
X206097862Y-121217588D01*
X206154775Y-121194014D01*
X206227707Y-121179507D01*
X206300638Y-121165000D01*
X206449362Y-121165000D01*
X206522293Y-121179507D01*
G37*
G36*
X231922293Y-121179507D02*
G01*
X231995225Y-121194014D01*
X232052138Y-121217588D01*
X232132626Y-121250927D01*
X232256284Y-121333553D01*
X232361447Y-121438716D01*
X232444073Y-121562374D01*
X232500986Y-121699776D01*
X232530000Y-121845638D01*
X232530000Y-121994362D01*
X232500986Y-122140224D01*
X232444073Y-122277626D01*
X232361447Y-122401284D01*
X232256284Y-122506447D01*
X232132626Y-122589073D01*
X232052138Y-122622412D01*
X231995225Y-122645986D01*
X231922293Y-122660493D01*
X231849362Y-122675000D01*
X231700638Y-122675000D01*
X231627707Y-122660493D01*
X231554775Y-122645986D01*
X231497862Y-122622412D01*
X231417374Y-122589073D01*
X231293716Y-122506447D01*
X231188553Y-122401284D01*
X231105927Y-122277626D01*
X231049014Y-122140224D01*
X231020000Y-121994362D01*
X231020000Y-121845638D01*
X231049014Y-121699776D01*
X231105927Y-121562374D01*
X231188553Y-121438716D01*
X231293716Y-121333553D01*
X231417374Y-121250927D01*
X231497862Y-121217588D01*
X231554775Y-121194014D01*
X231627707Y-121179507D01*
X231700638Y-121165000D01*
X231849362Y-121165000D01*
X231922293Y-121179507D01*
G37*
G36*
X209062293Y-121179507D02*
G01*
X209135225Y-121194014D01*
X209192138Y-121217588D01*
X209272626Y-121250927D01*
X209396284Y-121333553D01*
X209501447Y-121438716D01*
X209584073Y-121562374D01*
X209640986Y-121699776D01*
X209670000Y-121845638D01*
X209670000Y-121994362D01*
X209640986Y-122140224D01*
X209584073Y-122277626D01*
X209501447Y-122401284D01*
X209396284Y-122506447D01*
X209272626Y-122589073D01*
X209192138Y-122622412D01*
X209135225Y-122645986D01*
X209062293Y-122660493D01*
X208989362Y-122675000D01*
X208840638Y-122675000D01*
X208767707Y-122660493D01*
X208694775Y-122645986D01*
X208637862Y-122622412D01*
X208557374Y-122589073D01*
X208433716Y-122506447D01*
X208328553Y-122401284D01*
X208245927Y-122277626D01*
X208189014Y-122140224D01*
X208160000Y-121994362D01*
X208160000Y-121845638D01*
X208189014Y-121699776D01*
X208245927Y-121562374D01*
X208328553Y-121438716D01*
X208433716Y-121333553D01*
X208557374Y-121250927D01*
X208637862Y-121217588D01*
X208694775Y-121194014D01*
X208767707Y-121179507D01*
X208840638Y-121165000D01*
X208989362Y-121165000D01*
X209062293Y-121179507D01*
G37*
G36*
X211602293Y-121179507D02*
G01*
X211675225Y-121194014D01*
X211732138Y-121217588D01*
X211812626Y-121250927D01*
X211936284Y-121333553D01*
X212041447Y-121438716D01*
X212124073Y-121562374D01*
X212180986Y-121699776D01*
X212210000Y-121845638D01*
X212210000Y-121994362D01*
X212180986Y-122140224D01*
X212124073Y-122277626D01*
X212041447Y-122401284D01*
X211936284Y-122506447D01*
X211812626Y-122589073D01*
X211732138Y-122622412D01*
X211675225Y-122645986D01*
X211602293Y-122660493D01*
X211529362Y-122675000D01*
X211380638Y-122675000D01*
X211307707Y-122660493D01*
X211234775Y-122645986D01*
X211177862Y-122622412D01*
X211097374Y-122589073D01*
X210973716Y-122506447D01*
X210868553Y-122401284D01*
X210785927Y-122277626D01*
X210729014Y-122140224D01*
X210700000Y-121994362D01*
X210700000Y-121845638D01*
X210729014Y-121699776D01*
X210785927Y-121562374D01*
X210868553Y-121438716D01*
X210973716Y-121333553D01*
X211097374Y-121250927D01*
X211177862Y-121217588D01*
X211234775Y-121194014D01*
X211307707Y-121179507D01*
X211380638Y-121165000D01*
X211529362Y-121165000D01*
X211602293Y-121179507D01*
G37*
G36*
X151330810Y-118519135D02*
G01*
X151387707Y-118530452D01*
X151548494Y-118597052D01*
X151548496Y-118597053D01*
X151693196Y-118693738D01*
X151816262Y-118816804D01*
X151912947Y-118961504D01*
X151912948Y-118961506D01*
X151979548Y-119122293D01*
X152013500Y-119292983D01*
X152013500Y-119467017D01*
X151979548Y-119637707D01*
X151919324Y-119783100D01*
X151912947Y-119798496D01*
X151816262Y-119943196D01*
X151693196Y-120066262D01*
X151548496Y-120162947D01*
X151548495Y-120162948D01*
X151548494Y-120162948D01*
X151387707Y-120229548D01*
X151330810Y-120240865D01*
X151217019Y-120263500D01*
X151042981Y-120263500D01*
X150929190Y-120240865D01*
X150872293Y-120229548D01*
X150711506Y-120162948D01*
X150711505Y-120162948D01*
X150711504Y-120162947D01*
X150566804Y-120066262D01*
X150443738Y-119943196D01*
X150347053Y-119798496D01*
X150340676Y-119783100D01*
X150280452Y-119637707D01*
X150246500Y-119467017D01*
X150246500Y-119292983D01*
X150280452Y-119122293D01*
X150347052Y-118961506D01*
X150347053Y-118961504D01*
X150443738Y-118816804D01*
X150566804Y-118693738D01*
X150711504Y-118597053D01*
X150711506Y-118597052D01*
X150872293Y-118530452D01*
X150929190Y-118519135D01*
X151042981Y-118496500D01*
X151217019Y-118496500D01*
X151330810Y-118519135D01*
G37*
G36*
X171650810Y-118519135D02*
G01*
X171707707Y-118530452D01*
X171868494Y-118597052D01*
X171868496Y-118597053D01*
X172013196Y-118693738D01*
X172136262Y-118816804D01*
X172232947Y-118961504D01*
X172232948Y-118961506D01*
X172299548Y-119122293D01*
X172333500Y-119292983D01*
X172333500Y-119467017D01*
X172299548Y-119637707D01*
X172239324Y-119783100D01*
X172232947Y-119798496D01*
X172136262Y-119943196D01*
X172013196Y-120066262D01*
X171868496Y-120162947D01*
X171868495Y-120162948D01*
X171868494Y-120162948D01*
X171707707Y-120229548D01*
X171650810Y-120240865D01*
X171537019Y-120263500D01*
X171362981Y-120263500D01*
X171249190Y-120240865D01*
X171192293Y-120229548D01*
X171031506Y-120162948D01*
X171031505Y-120162948D01*
X171031504Y-120162947D01*
X170886804Y-120066262D01*
X170763738Y-119943196D01*
X170667053Y-119798496D01*
X170660676Y-119783100D01*
X170600452Y-119637707D01*
X170566500Y-119467017D01*
X170566500Y-119292983D01*
X170600452Y-119122293D01*
X170667052Y-118961506D01*
X170667053Y-118961504D01*
X170763738Y-118816804D01*
X170886804Y-118693738D01*
X171031504Y-118597053D01*
X171031506Y-118597052D01*
X171192293Y-118530452D01*
X171249190Y-118519135D01*
X171362981Y-118496500D01*
X171537019Y-118496500D01*
X171650810Y-118519135D01*
G37*
G36*
X195828228Y-118561703D02*
G01*
X195983100Y-118625853D01*
X196122481Y-118718985D01*
X196241015Y-118837519D01*
X196334147Y-118976900D01*
X196398297Y-119131772D01*
X196431000Y-119296184D01*
X196431000Y-119463816D01*
X196398297Y-119628228D01*
X196334147Y-119783100D01*
X196241015Y-119922481D01*
X196122481Y-120041015D01*
X195983100Y-120134147D01*
X195828228Y-120198297D01*
X195663816Y-120231000D01*
X195496184Y-120231000D01*
X195331772Y-120198297D01*
X195176900Y-120134147D01*
X195037519Y-120041015D01*
X194918985Y-119922481D01*
X194825853Y-119783100D01*
X194761703Y-119628228D01*
X194729000Y-119463816D01*
X194729000Y-119296184D01*
X194761703Y-119131772D01*
X194825853Y-118976900D01*
X194918985Y-118837519D01*
X195037519Y-118718985D01*
X195176900Y-118625853D01*
X195331772Y-118561703D01*
X195496184Y-118529000D01*
X195663816Y-118529000D01*
X195828228Y-118561703D01*
G37*
G36*
X180588228Y-118561703D02*
G01*
X180743100Y-118625853D01*
X180882481Y-118718985D01*
X181001015Y-118837519D01*
X181094147Y-118976900D01*
X181158297Y-119131772D01*
X181191000Y-119296184D01*
X181191000Y-119463816D01*
X181158297Y-119628228D01*
X181094147Y-119783100D01*
X181001015Y-119922481D01*
X180882481Y-120041015D01*
X180743100Y-120134147D01*
X180588228Y-120198297D01*
X180423816Y-120231000D01*
X180256184Y-120231000D01*
X180091772Y-120198297D01*
X179936900Y-120134147D01*
X179797519Y-120041015D01*
X179678985Y-119922481D01*
X179585853Y-119783100D01*
X179521703Y-119628228D01*
X179489000Y-119463816D01*
X179489000Y-119296184D01*
X179521703Y-119131772D01*
X179585853Y-118976900D01*
X179678985Y-118837519D01*
X179797519Y-118718985D01*
X179936900Y-118625853D01*
X180091772Y-118561703D01*
X180256184Y-118529000D01*
X180423816Y-118529000D01*
X180588228Y-118561703D01*
G37*
G36*
X180588228Y-116021703D02*
G01*
X180743100Y-116085853D01*
X180882481Y-116178985D01*
X181001015Y-116297519D01*
X181094147Y-116436900D01*
X181158297Y-116591772D01*
X181191000Y-116756184D01*
X181191000Y-116923816D01*
X181158297Y-117088228D01*
X181094147Y-117243100D01*
X181001015Y-117382481D01*
X180882481Y-117501015D01*
X180743100Y-117594147D01*
X180588228Y-117658297D01*
X180423816Y-117691000D01*
X180256184Y-117691000D01*
X180091772Y-117658297D01*
X179936900Y-117594147D01*
X179797519Y-117501015D01*
X179678985Y-117382481D01*
X179585853Y-117243100D01*
X179521703Y-117088228D01*
X179489000Y-116923816D01*
X179489000Y-116756184D01*
X179521703Y-116591772D01*
X179585853Y-116436900D01*
X179678985Y-116297519D01*
X179797519Y-116178985D01*
X179936900Y-116085853D01*
X180091772Y-116021703D01*
X180256184Y-115989000D01*
X180423816Y-115989000D01*
X180588228Y-116021703D01*
G37*
G36*
X195828228Y-116021703D02*
G01*
X195983100Y-116085853D01*
X196122481Y-116178985D01*
X196241015Y-116297519D01*
X196334147Y-116436900D01*
X196398297Y-116591772D01*
X196431000Y-116756184D01*
X196431000Y-116923816D01*
X196398297Y-117088228D01*
X196334147Y-117243100D01*
X196241015Y-117382481D01*
X196122481Y-117501015D01*
X195983100Y-117594147D01*
X195828228Y-117658297D01*
X195663816Y-117691000D01*
X195496184Y-117691000D01*
X195331772Y-117658297D01*
X195176900Y-117594147D01*
X195037519Y-117501015D01*
X194918985Y-117382481D01*
X194825853Y-117243100D01*
X194761703Y-117088228D01*
X194729000Y-116923816D01*
X194729000Y-116756184D01*
X194761703Y-116591772D01*
X194825853Y-116436900D01*
X194918985Y-116297519D01*
X195037519Y-116178985D01*
X195176900Y-116085853D01*
X195331772Y-116021703D01*
X195496184Y-115989000D01*
X195663816Y-115989000D01*
X195828228Y-116021703D01*
G37*
G36*
X176894903Y-113097075D02*
G01*
X177122571Y-113191378D01*
X177327466Y-113328285D01*
X177501715Y-113502534D01*
X177638622Y-113707429D01*
X177732925Y-113935097D01*
X177781000Y-114176787D01*
X177781000Y-114423213D01*
X177732925Y-114664903D01*
X177638622Y-114892571D01*
X177501715Y-115097466D01*
X177327466Y-115271715D01*
X177122571Y-115408622D01*
X177122570Y-115408623D01*
X177122569Y-115408623D01*
X176894903Y-115502925D01*
X176653214Y-115551000D01*
X176406786Y-115551000D01*
X176165097Y-115502925D01*
X175937431Y-115408623D01*
X175937430Y-115408623D01*
X175937429Y-115408622D01*
X175732534Y-115271715D01*
X175558285Y-115097466D01*
X175421378Y-114892571D01*
X175327075Y-114664903D01*
X175279000Y-114423213D01*
X175279000Y-114176787D01*
X175327075Y-113935097D01*
X175421378Y-113707429D01*
X175558285Y-113502534D01*
X175732534Y-113328285D01*
X175937429Y-113191378D01*
X176165097Y-113097075D01*
X176406786Y-113049000D01*
X176653214Y-113049000D01*
X176894903Y-113097075D01*
G37*
G36*
X195828228Y-113481703D02*
G01*
X195983100Y-113545853D01*
X196122481Y-113638985D01*
X196241015Y-113757519D01*
X196334147Y-113896900D01*
X196398297Y-114051772D01*
X196431000Y-114216184D01*
X196431000Y-114383816D01*
X196398297Y-114548228D01*
X196334147Y-114703100D01*
X196241015Y-114842481D01*
X196122481Y-114961015D01*
X195983100Y-115054147D01*
X195828228Y-115118297D01*
X195663816Y-115151000D01*
X195496184Y-115151000D01*
X195331772Y-115118297D01*
X195176900Y-115054147D01*
X195037519Y-114961015D01*
X194918985Y-114842481D01*
X194825853Y-114703100D01*
X194761703Y-114548228D01*
X194729000Y-114383816D01*
X194729000Y-114216184D01*
X194761703Y-114051772D01*
X194825853Y-113896900D01*
X194918985Y-113757519D01*
X195037519Y-113638985D01*
X195176900Y-113545853D01*
X195331772Y-113481703D01*
X195496184Y-113449000D01*
X195663816Y-113449000D01*
X195828228Y-113481703D01*
G37*
G36*
X180588228Y-113481703D02*
G01*
X180743100Y-113545853D01*
X180882481Y-113638985D01*
X181001015Y-113757519D01*
X181094147Y-113896900D01*
X181158297Y-114051772D01*
X181191000Y-114216184D01*
X181191000Y-114383816D01*
X181158297Y-114548228D01*
X181094147Y-114703100D01*
X181001015Y-114842481D01*
X180882481Y-114961015D01*
X180743100Y-115054147D01*
X180588228Y-115118297D01*
X180423816Y-115151000D01*
X180256184Y-115151000D01*
X180091772Y-115118297D01*
X179936900Y-115054147D01*
X179797519Y-114961015D01*
X179678985Y-114842481D01*
X179585853Y-114703100D01*
X179521703Y-114548228D01*
X179489000Y-114383816D01*
X179489000Y-114216184D01*
X179521703Y-114051772D01*
X179585853Y-113896900D01*
X179678985Y-113757519D01*
X179797519Y-113638985D01*
X179936900Y-113545853D01*
X180091772Y-113481703D01*
X180256184Y-113449000D01*
X180423816Y-113449000D01*
X180588228Y-113481703D01*
G37*
G36*
X195828228Y-110941703D02*
G01*
X195983100Y-111005853D01*
X196122481Y-111098985D01*
X196241015Y-111217519D01*
X196334147Y-111356900D01*
X196398297Y-111511772D01*
X196431000Y-111676184D01*
X196431000Y-111843816D01*
X196398297Y-112008228D01*
X196334147Y-112163100D01*
X196241015Y-112302481D01*
X196122481Y-112421015D01*
X195983100Y-112514147D01*
X195828228Y-112578297D01*
X195663816Y-112611000D01*
X195496184Y-112611000D01*
X195331772Y-112578297D01*
X195176900Y-112514147D01*
X195037519Y-112421015D01*
X194918985Y-112302481D01*
X194825853Y-112163100D01*
X194761703Y-112008228D01*
X194729000Y-111843816D01*
X194729000Y-111676184D01*
X194761703Y-111511772D01*
X194825853Y-111356900D01*
X194918985Y-111217519D01*
X195037519Y-111098985D01*
X195176900Y-111005853D01*
X195331772Y-110941703D01*
X195496184Y-110909000D01*
X195663816Y-110909000D01*
X195828228Y-110941703D01*
G37*
G36*
X180588228Y-110941703D02*
G01*
X180743100Y-111005853D01*
X180882481Y-111098985D01*
X181001015Y-111217519D01*
X181094147Y-111356900D01*
X181158297Y-111511772D01*
X181191000Y-111676184D01*
X181191000Y-111843816D01*
X181158297Y-112008228D01*
X181094147Y-112163100D01*
X181001015Y-112302481D01*
X180882481Y-112421015D01*
X180743100Y-112514147D01*
X180588228Y-112578297D01*
X180423816Y-112611000D01*
X180256184Y-112611000D01*
X180091772Y-112578297D01*
X179936900Y-112514147D01*
X179797519Y-112421015D01*
X179678985Y-112302481D01*
X179585853Y-112163100D01*
X179521703Y-112008228D01*
X179489000Y-111843816D01*
X179489000Y-111676184D01*
X179521703Y-111511772D01*
X179585853Y-111356900D01*
X179678985Y-111217519D01*
X179797519Y-111098985D01*
X179936900Y-111005853D01*
X180091772Y-110941703D01*
X180256184Y-110909000D01*
X180423816Y-110909000D01*
X180588228Y-110941703D01*
G37*
G36*
X237693803Y-111088150D02*
G01*
X237820959Y-111140820D01*
X237935395Y-111217284D01*
X238032716Y-111314605D01*
X238109181Y-111429043D01*
X238161850Y-111556197D01*
X238188700Y-111691183D01*
X238188700Y-111828817D01*
X238161850Y-111963803D01*
X238143449Y-112008228D01*
X238109180Y-112090959D01*
X238032716Y-112205395D01*
X237935395Y-112302716D01*
X237820959Y-112379180D01*
X237820958Y-112379181D01*
X237820957Y-112379181D01*
X237693803Y-112431850D01*
X237558817Y-112458700D01*
X237421183Y-112458700D01*
X237286197Y-112431850D01*
X237159043Y-112379181D01*
X237159042Y-112379181D01*
X237159041Y-112379180D01*
X237044605Y-112302716D01*
X236947284Y-112205395D01*
X236870820Y-112090959D01*
X236836552Y-112008228D01*
X236818150Y-111963803D01*
X236791300Y-111828817D01*
X236791300Y-111691183D01*
X236818150Y-111556197D01*
X236870819Y-111429043D01*
X236947284Y-111314605D01*
X237044605Y-111217284D01*
X237159041Y-111140820D01*
X237286197Y-111088150D01*
X237421183Y-111061300D01*
X237558817Y-111061300D01*
X237693803Y-111088150D01*
G37*
G36*
X229565803Y-111088150D02*
G01*
X229692959Y-111140820D01*
X229807395Y-111217284D01*
X229904716Y-111314605D01*
X229981181Y-111429043D01*
X230033850Y-111556197D01*
X230060700Y-111691183D01*
X230060700Y-111828817D01*
X230033850Y-111963803D01*
X230015449Y-112008228D01*
X229981180Y-112090959D01*
X229904716Y-112205395D01*
X229807395Y-112302716D01*
X229692959Y-112379180D01*
X229692958Y-112379181D01*
X229692957Y-112379181D01*
X229565803Y-112431850D01*
X229430817Y-112458700D01*
X229293183Y-112458700D01*
X229158197Y-112431850D01*
X229031043Y-112379181D01*
X229031042Y-112379181D01*
X229031041Y-112379180D01*
X228916605Y-112302716D01*
X228819284Y-112205395D01*
X228742820Y-112090959D01*
X228708552Y-112008228D01*
X228690150Y-111963803D01*
X228663300Y-111828817D01*
X228663300Y-111691183D01*
X228690150Y-111556197D01*
X228742819Y-111429043D01*
X228819284Y-111314605D01*
X228916605Y-111217284D01*
X229031041Y-111140820D01*
X229158197Y-111088150D01*
X229293183Y-111061300D01*
X229430817Y-111061300D01*
X229565803Y-111088150D01*
G37*
G36*
X222453803Y-111088150D02*
G01*
X222580959Y-111140820D01*
X222695395Y-111217284D01*
X222792716Y-111314605D01*
X222869181Y-111429043D01*
X222921850Y-111556197D01*
X222948700Y-111691183D01*
X222948700Y-111828817D01*
X222921850Y-111963803D01*
X222903449Y-112008228D01*
X222869180Y-112090959D01*
X222792716Y-112205395D01*
X222695395Y-112302716D01*
X222580959Y-112379180D01*
X222580958Y-112379181D01*
X222580957Y-112379181D01*
X222453803Y-112431850D01*
X222318817Y-112458700D01*
X222181183Y-112458700D01*
X222046197Y-112431850D01*
X221919043Y-112379181D01*
X221919042Y-112379181D01*
X221919041Y-112379180D01*
X221804605Y-112302716D01*
X221707284Y-112205395D01*
X221630820Y-112090959D01*
X221596552Y-112008228D01*
X221578150Y-111963803D01*
X221551300Y-111828817D01*
X221551300Y-111691183D01*
X221578150Y-111556197D01*
X221630819Y-111429043D01*
X221707284Y-111314605D01*
X221804605Y-111217284D01*
X221919041Y-111140820D01*
X222046197Y-111088150D01*
X222181183Y-111061300D01*
X222318817Y-111061300D01*
X222453803Y-111088150D01*
G37*
G36*
X214833803Y-111088150D02*
G01*
X214960959Y-111140820D01*
X215075395Y-111217284D01*
X215172716Y-111314605D01*
X215249181Y-111429043D01*
X215301850Y-111556197D01*
X215328700Y-111691183D01*
X215328700Y-111828817D01*
X215301850Y-111963803D01*
X215283449Y-112008228D01*
X215249180Y-112090959D01*
X215172716Y-112205395D01*
X215075395Y-112302716D01*
X214960959Y-112379180D01*
X214960958Y-112379181D01*
X214960957Y-112379181D01*
X214833803Y-112431850D01*
X214698817Y-112458700D01*
X214561183Y-112458700D01*
X214426197Y-112431850D01*
X214299043Y-112379181D01*
X214299042Y-112379181D01*
X214299041Y-112379180D01*
X214184605Y-112302716D01*
X214087284Y-112205395D01*
X214010820Y-112090959D01*
X213976552Y-112008228D01*
X213958150Y-111963803D01*
X213931300Y-111828817D01*
X213931300Y-111691183D01*
X213958150Y-111556197D01*
X214010819Y-111429043D01*
X214087284Y-111314605D01*
X214184605Y-111217284D01*
X214299041Y-111140820D01*
X214426197Y-111088150D01*
X214561183Y-111061300D01*
X214698817Y-111061300D01*
X214833803Y-111088150D01*
G37*
G36*
X195828228Y-108401703D02*
G01*
X195983100Y-108465853D01*
X196122481Y-108558985D01*
X196241015Y-108677519D01*
X196334147Y-108816900D01*
X196398297Y-108971772D01*
X196431000Y-109136184D01*
X196431000Y-109303816D01*
X196398297Y-109468228D01*
X196334147Y-109623100D01*
X196241015Y-109762481D01*
X196122481Y-109881015D01*
X195983100Y-109974147D01*
X195828228Y-110038297D01*
X195663816Y-110071000D01*
X195496184Y-110071000D01*
X195331772Y-110038297D01*
X195176900Y-109974147D01*
X195037519Y-109881015D01*
X194918985Y-109762481D01*
X194825853Y-109623100D01*
X194761703Y-109468228D01*
X194729000Y-109303816D01*
X194729000Y-109136184D01*
X194761703Y-108971772D01*
X194825853Y-108816900D01*
X194918985Y-108677519D01*
X195037519Y-108558985D01*
X195176900Y-108465853D01*
X195331772Y-108401703D01*
X195496184Y-108369000D01*
X195663816Y-108369000D01*
X195828228Y-108401703D01*
G37*
G36*
X180588228Y-108401703D02*
G01*
X180743100Y-108465853D01*
X180882481Y-108558985D01*
X181001015Y-108677519D01*
X181094147Y-108816900D01*
X181158297Y-108971772D01*
X181191000Y-109136184D01*
X181191000Y-109303816D01*
X181158297Y-109468228D01*
X181094147Y-109623100D01*
X181001015Y-109762481D01*
X180882481Y-109881015D01*
X180743100Y-109974147D01*
X180588228Y-110038297D01*
X180423816Y-110071000D01*
X180256184Y-110071000D01*
X180091772Y-110038297D01*
X179936900Y-109974147D01*
X179797519Y-109881015D01*
X179678985Y-109762481D01*
X179585853Y-109623100D01*
X179521703Y-109468228D01*
X179489000Y-109303816D01*
X179489000Y-109136184D01*
X179521703Y-108971772D01*
X179585853Y-108816900D01*
X179678985Y-108677519D01*
X179797519Y-108558985D01*
X179936900Y-108465853D01*
X180091772Y-108401703D01*
X180256184Y-108369000D01*
X180423816Y-108369000D01*
X180588228Y-108401703D01*
G37*
G36*
X237693803Y-108548150D02*
G01*
X237820959Y-108600820D01*
X237935395Y-108677284D01*
X238032716Y-108774605D01*
X238092751Y-108864453D01*
X238109181Y-108889043D01*
X238161850Y-109016197D01*
X238188700Y-109151183D01*
X238188700Y-109288817D01*
X238161850Y-109423803D01*
X238143449Y-109468228D01*
X238109180Y-109550959D01*
X238032716Y-109665395D01*
X237935395Y-109762716D01*
X237820959Y-109839180D01*
X237820958Y-109839181D01*
X237820957Y-109839181D01*
X237693803Y-109891850D01*
X237558817Y-109918700D01*
X237421183Y-109918700D01*
X237286197Y-109891850D01*
X237159043Y-109839181D01*
X237159042Y-109839181D01*
X237159041Y-109839180D01*
X237044605Y-109762716D01*
X236947284Y-109665395D01*
X236870820Y-109550959D01*
X236836552Y-109468228D01*
X236818150Y-109423803D01*
X236791300Y-109288817D01*
X236791300Y-109151183D01*
X236818150Y-109016197D01*
X236870819Y-108889043D01*
X236887250Y-108864453D01*
X236947284Y-108774605D01*
X237044605Y-108677284D01*
X237159041Y-108600820D01*
X237286197Y-108548150D01*
X237421183Y-108521300D01*
X237558817Y-108521300D01*
X237693803Y-108548150D01*
G37*
G36*
X214833803Y-108548150D02*
G01*
X214960959Y-108600820D01*
X215075395Y-108677284D01*
X215172716Y-108774605D01*
X215232751Y-108864453D01*
X215249181Y-108889043D01*
X215301850Y-109016197D01*
X215328700Y-109151183D01*
X215328700Y-109288817D01*
X215301850Y-109423803D01*
X215283449Y-109468228D01*
X215249180Y-109550959D01*
X215172716Y-109665395D01*
X215075395Y-109762716D01*
X214960959Y-109839180D01*
X214960958Y-109839181D01*
X214960957Y-109839181D01*
X214833803Y-109891850D01*
X214698817Y-109918700D01*
X214561183Y-109918700D01*
X214426197Y-109891850D01*
X214299043Y-109839181D01*
X214299042Y-109839181D01*
X214299041Y-109839180D01*
X214184605Y-109762716D01*
X214087284Y-109665395D01*
X214010820Y-109550959D01*
X213976552Y-109468228D01*
X213958150Y-109423803D01*
X213931300Y-109288817D01*
X213931300Y-109151183D01*
X213958150Y-109016197D01*
X214010819Y-108889043D01*
X214027250Y-108864453D01*
X214087284Y-108774605D01*
X214184605Y-108677284D01*
X214299041Y-108600820D01*
X214426197Y-108548150D01*
X214561183Y-108521300D01*
X214698817Y-108521300D01*
X214833803Y-108548150D01*
G37*
G36*
X222453803Y-108548150D02*
G01*
X222580959Y-108600820D01*
X222695395Y-108677284D01*
X222792716Y-108774605D01*
X222852751Y-108864453D01*
X222869181Y-108889043D01*
X222921850Y-109016197D01*
X222948700Y-109151183D01*
X222948700Y-109288817D01*
X222921850Y-109423803D01*
X222903449Y-109468228D01*
X222869180Y-109550959D01*
X222792716Y-109665395D01*
X222695395Y-109762716D01*
X222580959Y-109839180D01*
X222580958Y-109839181D01*
X222580957Y-109839181D01*
X222453803Y-109891850D01*
X222318817Y-109918700D01*
X222181183Y-109918700D01*
X222046197Y-109891850D01*
X221919043Y-109839181D01*
X221919042Y-109839181D01*
X221919041Y-109839180D01*
X221804605Y-109762716D01*
X221707284Y-109665395D01*
X221630820Y-109550959D01*
X221596552Y-109468228D01*
X221578150Y-109423803D01*
X221551300Y-109288817D01*
X221551300Y-109151183D01*
X221578150Y-109016197D01*
X221630819Y-108889043D01*
X221647250Y-108864453D01*
X221707284Y-108774605D01*
X221804605Y-108677284D01*
X221919041Y-108600820D01*
X222046197Y-108548150D01*
X222181183Y-108521300D01*
X222318817Y-108521300D01*
X222453803Y-108548150D01*
G37*
G36*
X229565803Y-108548150D02*
G01*
X229692959Y-108600820D01*
X229807395Y-108677284D01*
X229904716Y-108774605D01*
X229964751Y-108864453D01*
X229981181Y-108889043D01*
X230033850Y-109016197D01*
X230060700Y-109151183D01*
X230060700Y-109288817D01*
X230033850Y-109423803D01*
X230015449Y-109468228D01*
X229981180Y-109550959D01*
X229904716Y-109665395D01*
X229807395Y-109762716D01*
X229692959Y-109839180D01*
X229692958Y-109839181D01*
X229692957Y-109839181D01*
X229565803Y-109891850D01*
X229430817Y-109918700D01*
X229293183Y-109918700D01*
X229158197Y-109891850D01*
X229031043Y-109839181D01*
X229031042Y-109839181D01*
X229031041Y-109839180D01*
X228916605Y-109762716D01*
X228819284Y-109665395D01*
X228742820Y-109550959D01*
X228708552Y-109468228D01*
X228690150Y-109423803D01*
X228663300Y-109288817D01*
X228663300Y-109151183D01*
X228690150Y-109016197D01*
X228742819Y-108889043D01*
X228759250Y-108864453D01*
X228819284Y-108774605D01*
X228916605Y-108677284D01*
X229031041Y-108600820D01*
X229158197Y-108548150D01*
X229293183Y-108521300D01*
X229430817Y-108521300D01*
X229565803Y-108548150D01*
G37*
G36*
X158431000Y-108901000D02*
G01*
X156529000Y-108901000D01*
X156529000Y-106999000D01*
X158431000Y-106999000D01*
X158431000Y-108901000D01*
G37*
G36*
X160297395Y-107035546D02*
G01*
X160470466Y-107107234D01*
X160547818Y-107158919D01*
X160626227Y-107211310D01*
X160758690Y-107343773D01*
X160758691Y-107343775D01*
X160862766Y-107499534D01*
X160934454Y-107672605D01*
X160971000Y-107856333D01*
X160971000Y-108043667D01*
X160934454Y-108227395D01*
X160862766Y-108400466D01*
X160862765Y-108400467D01*
X160758690Y-108556227D01*
X160626227Y-108688690D01*
X160547818Y-108741081D01*
X160470466Y-108792766D01*
X160297395Y-108864454D01*
X160113667Y-108901000D01*
X159926333Y-108901000D01*
X159742605Y-108864454D01*
X159569534Y-108792766D01*
X159492182Y-108741081D01*
X159413773Y-108688690D01*
X159281310Y-108556227D01*
X159177235Y-108400467D01*
X159177234Y-108400466D01*
X159105546Y-108227395D01*
X159069000Y-108043667D01*
X159069000Y-107856333D01*
X159105546Y-107672605D01*
X159177234Y-107499534D01*
X159281309Y-107343775D01*
X159281310Y-107343773D01*
X159413773Y-107211310D01*
X159492182Y-107158919D01*
X159569534Y-107107234D01*
X159742605Y-107035546D01*
X159926333Y-106999000D01*
X160113667Y-106999000D01*
X160297395Y-107035546D01*
G37*
G36*
X195828228Y-105861703D02*
G01*
X195983100Y-105925853D01*
X196122481Y-106018985D01*
X196241015Y-106137519D01*
X196334147Y-106276900D01*
X196398297Y-106431772D01*
X196431000Y-106596184D01*
X196431000Y-106763816D01*
X196398297Y-106928228D01*
X196334147Y-107083100D01*
X196241015Y-107222481D01*
X196122481Y-107341015D01*
X195983100Y-107434147D01*
X195828228Y-107498297D01*
X195663816Y-107531000D01*
X195496184Y-107531000D01*
X195331772Y-107498297D01*
X195176900Y-107434147D01*
X195037519Y-107341015D01*
X194918985Y-107222481D01*
X194825853Y-107083100D01*
X194761703Y-106928228D01*
X194729000Y-106763816D01*
X194729000Y-106596184D01*
X194761703Y-106431772D01*
X194825853Y-106276900D01*
X194918985Y-106137519D01*
X195037519Y-106018985D01*
X195176900Y-105925853D01*
X195331772Y-105861703D01*
X195496184Y-105829000D01*
X195663816Y-105829000D01*
X195828228Y-105861703D01*
G37*
G36*
X180588228Y-105861703D02*
G01*
X180743100Y-105925853D01*
X180882481Y-106018985D01*
X181001015Y-106137519D01*
X181094147Y-106276900D01*
X181158297Y-106431772D01*
X181191000Y-106596184D01*
X181191000Y-106763816D01*
X181158297Y-106928228D01*
X181094147Y-107083100D01*
X181001015Y-107222481D01*
X180882481Y-107341015D01*
X180743100Y-107434147D01*
X180588228Y-107498297D01*
X180423816Y-107531000D01*
X180256184Y-107531000D01*
X180091772Y-107498297D01*
X179936900Y-107434147D01*
X179797519Y-107341015D01*
X179678985Y-107222481D01*
X179585853Y-107083100D01*
X179521703Y-106928228D01*
X179489000Y-106763816D01*
X179489000Y-106596184D01*
X179521703Y-106431772D01*
X179585853Y-106276900D01*
X179678985Y-106137519D01*
X179797519Y-106018985D01*
X179936900Y-105925853D01*
X180091772Y-105861703D01*
X180256184Y-105829000D01*
X180423816Y-105829000D01*
X180588228Y-105861703D01*
G37*
G36*
X237693803Y-106008150D02*
G01*
X237820959Y-106060820D01*
X237935395Y-106137284D01*
X238032716Y-106234605D01*
X238109181Y-106349043D01*
X238161850Y-106476197D01*
X238188700Y-106611183D01*
X238188700Y-106748817D01*
X238161850Y-106883803D01*
X238143449Y-106928228D01*
X238109180Y-107010959D01*
X238032716Y-107125395D01*
X237935395Y-107222716D01*
X237820959Y-107299180D01*
X237820958Y-107299181D01*
X237820957Y-107299181D01*
X237693803Y-107351850D01*
X237558817Y-107378700D01*
X237421183Y-107378700D01*
X237286197Y-107351850D01*
X237159043Y-107299181D01*
X237159042Y-107299181D01*
X237159041Y-107299180D01*
X237044605Y-107222716D01*
X236947284Y-107125395D01*
X236870820Y-107010959D01*
X236836552Y-106928228D01*
X236818150Y-106883803D01*
X236791300Y-106748817D01*
X236791300Y-106611183D01*
X236818150Y-106476197D01*
X236870819Y-106349043D01*
X236947284Y-106234605D01*
X237044605Y-106137284D01*
X237159041Y-106060820D01*
X237286197Y-106008150D01*
X237421183Y-105981300D01*
X237558817Y-105981300D01*
X237693803Y-106008150D01*
G37*
G36*
X229565803Y-106008150D02*
G01*
X229692959Y-106060820D01*
X229807395Y-106137284D01*
X229904716Y-106234605D01*
X229981181Y-106349043D01*
X230033850Y-106476197D01*
X230060700Y-106611183D01*
X230060700Y-106748817D01*
X230033850Y-106883803D01*
X230015449Y-106928228D01*
X229981180Y-107010959D01*
X229904716Y-107125395D01*
X229807395Y-107222716D01*
X229692959Y-107299180D01*
X229692958Y-107299181D01*
X229692957Y-107299181D01*
X229565803Y-107351850D01*
X229430817Y-107378700D01*
X229293183Y-107378700D01*
X229158197Y-107351850D01*
X229031043Y-107299181D01*
X229031042Y-107299181D01*
X229031041Y-107299180D01*
X228916605Y-107222716D01*
X228819284Y-107125395D01*
X228742820Y-107010959D01*
X228708552Y-106928228D01*
X228690150Y-106883803D01*
X228663300Y-106748817D01*
X228663300Y-106611183D01*
X228690150Y-106476197D01*
X228742819Y-106349043D01*
X228819284Y-106234605D01*
X228916605Y-106137284D01*
X229031041Y-106060820D01*
X229158197Y-106008150D01*
X229293183Y-105981300D01*
X229430817Y-105981300D01*
X229565803Y-106008150D01*
G37*
G36*
X222453803Y-106008150D02*
G01*
X222580959Y-106060820D01*
X222695395Y-106137284D01*
X222792716Y-106234605D01*
X222869181Y-106349043D01*
X222921850Y-106476197D01*
X222948700Y-106611183D01*
X222948700Y-106748817D01*
X222921850Y-106883803D01*
X222903449Y-106928228D01*
X222869180Y-107010959D01*
X222792716Y-107125395D01*
X222695395Y-107222716D01*
X222580959Y-107299180D01*
X222580958Y-107299181D01*
X222580957Y-107299181D01*
X222453803Y-107351850D01*
X222318817Y-107378700D01*
X222181183Y-107378700D01*
X222046197Y-107351850D01*
X221919043Y-107299181D01*
X221919042Y-107299181D01*
X221919041Y-107299180D01*
X221804605Y-107222716D01*
X221707284Y-107125395D01*
X221630820Y-107010959D01*
X221596552Y-106928228D01*
X221578150Y-106883803D01*
X221551300Y-106748817D01*
X221551300Y-106611183D01*
X221578150Y-106476197D01*
X221630819Y-106349043D01*
X221707284Y-106234605D01*
X221804605Y-106137284D01*
X221919041Y-106060820D01*
X222046197Y-106008150D01*
X222181183Y-105981300D01*
X222318817Y-105981300D01*
X222453803Y-106008150D01*
G37*
G36*
X214833803Y-106008150D02*
G01*
X214960959Y-106060820D01*
X215075395Y-106137284D01*
X215172716Y-106234605D01*
X215249181Y-106349043D01*
X215301850Y-106476197D01*
X215328700Y-106611183D01*
X215328700Y-106748817D01*
X215301850Y-106883803D01*
X215283449Y-106928228D01*
X215249180Y-107010959D01*
X215172716Y-107125395D01*
X215075395Y-107222716D01*
X214960959Y-107299180D01*
X214960958Y-107299181D01*
X214960957Y-107299181D01*
X214833803Y-107351850D01*
X214698817Y-107378700D01*
X214561183Y-107378700D01*
X214426197Y-107351850D01*
X214299043Y-107299181D01*
X214299042Y-107299181D01*
X214299041Y-107299180D01*
X214184605Y-107222716D01*
X214087284Y-107125395D01*
X214010820Y-107010959D01*
X213976552Y-106928228D01*
X213958150Y-106883803D01*
X213931300Y-106748817D01*
X213931300Y-106611183D01*
X213958150Y-106476197D01*
X214010819Y-106349043D01*
X214087284Y-106234605D01*
X214184605Y-106137284D01*
X214299041Y-106060820D01*
X214426197Y-106008150D01*
X214561183Y-105981300D01*
X214698817Y-105981300D01*
X214833803Y-106008150D01*
G37*
G36*
X195828228Y-103321703D02*
G01*
X195983100Y-103385853D01*
X196122481Y-103478985D01*
X196241015Y-103597519D01*
X196334147Y-103736900D01*
X196398297Y-103891772D01*
X196431000Y-104056184D01*
X196431000Y-104223816D01*
X196398297Y-104388228D01*
X196334147Y-104543100D01*
X196241015Y-104682481D01*
X196122481Y-104801015D01*
X195983100Y-104894147D01*
X195828228Y-104958297D01*
X195663816Y-104991000D01*
X195496184Y-104991000D01*
X195331772Y-104958297D01*
X195176900Y-104894147D01*
X195037519Y-104801015D01*
X194918985Y-104682481D01*
X194825853Y-104543100D01*
X194761703Y-104388228D01*
X194729000Y-104223816D01*
X194729000Y-104056184D01*
X194761703Y-103891772D01*
X194825853Y-103736900D01*
X194918985Y-103597519D01*
X195037519Y-103478985D01*
X195176900Y-103385853D01*
X195331772Y-103321703D01*
X195496184Y-103289000D01*
X195663816Y-103289000D01*
X195828228Y-103321703D01*
G37*
G36*
X193288228Y-103321703D02*
G01*
X193443100Y-103385853D01*
X193582481Y-103478985D01*
X193701015Y-103597519D01*
X193794147Y-103736900D01*
X193858297Y-103891772D01*
X193891000Y-104056184D01*
X193891000Y-104223816D01*
X193858297Y-104388228D01*
X193794147Y-104543100D01*
X193701015Y-104682481D01*
X193582481Y-104801015D01*
X193443100Y-104894147D01*
X193288228Y-104958297D01*
X193123816Y-104991000D01*
X192956184Y-104991000D01*
X192791772Y-104958297D01*
X192636900Y-104894147D01*
X192497519Y-104801015D01*
X192378985Y-104682481D01*
X192285853Y-104543100D01*
X192221703Y-104388228D01*
X192189000Y-104223816D01*
X192189000Y-104056184D01*
X192221703Y-103891772D01*
X192285853Y-103736900D01*
X192378985Y-103597519D01*
X192497519Y-103478985D01*
X192636900Y-103385853D01*
X192791772Y-103321703D01*
X192956184Y-103289000D01*
X193123816Y-103289000D01*
X193288228Y-103321703D01*
G37*
G36*
X190748228Y-103321703D02*
G01*
X190903100Y-103385853D01*
X191042481Y-103478985D01*
X191161015Y-103597519D01*
X191254147Y-103736900D01*
X191318297Y-103891772D01*
X191351000Y-104056184D01*
X191351000Y-104223816D01*
X191318297Y-104388228D01*
X191254147Y-104543100D01*
X191161015Y-104682481D01*
X191042481Y-104801015D01*
X190903100Y-104894147D01*
X190748228Y-104958297D01*
X190583816Y-104991000D01*
X190416184Y-104991000D01*
X190251772Y-104958297D01*
X190096900Y-104894147D01*
X189957519Y-104801015D01*
X189838985Y-104682481D01*
X189745853Y-104543100D01*
X189681703Y-104388228D01*
X189649000Y-104223816D01*
X189649000Y-104056184D01*
X189681703Y-103891772D01*
X189745853Y-103736900D01*
X189838985Y-103597519D01*
X189957519Y-103478985D01*
X190096900Y-103385853D01*
X190251772Y-103321703D01*
X190416184Y-103289000D01*
X190583816Y-103289000D01*
X190748228Y-103321703D01*
G37*
G36*
X180588228Y-103321703D02*
G01*
X180743100Y-103385853D01*
X180882481Y-103478985D01*
X181001015Y-103597519D01*
X181094147Y-103736900D01*
X181158297Y-103891772D01*
X181191000Y-104056184D01*
X181191000Y-104223816D01*
X181158297Y-104388228D01*
X181094147Y-104543100D01*
X181001015Y-104682481D01*
X180882481Y-104801015D01*
X180743100Y-104894147D01*
X180588228Y-104958297D01*
X180423816Y-104991000D01*
X180256184Y-104991000D01*
X180091772Y-104958297D01*
X179936900Y-104894147D01*
X179797519Y-104801015D01*
X179678985Y-104682481D01*
X179585853Y-104543100D01*
X179521703Y-104388228D01*
X179489000Y-104223816D01*
X179489000Y-104056184D01*
X179521703Y-103891772D01*
X179585853Y-103736900D01*
X179678985Y-103597519D01*
X179797519Y-103478985D01*
X179936900Y-103385853D01*
X180091772Y-103321703D01*
X180256184Y-103289000D01*
X180423816Y-103289000D01*
X180588228Y-103321703D01*
G37*
G36*
X183128228Y-103321703D02*
G01*
X183283100Y-103385853D01*
X183422481Y-103478985D01*
X183541015Y-103597519D01*
X183634147Y-103736900D01*
X183698297Y-103891772D01*
X183731000Y-104056184D01*
X183731000Y-104223816D01*
X183698297Y-104388228D01*
X183634147Y-104543100D01*
X183541015Y-104682481D01*
X183422481Y-104801015D01*
X183283100Y-104894147D01*
X183128228Y-104958297D01*
X182963816Y-104991000D01*
X182796184Y-104991000D01*
X182631772Y-104958297D01*
X182476900Y-104894147D01*
X182337519Y-104801015D01*
X182218985Y-104682481D01*
X182125853Y-104543100D01*
X182061703Y-104388228D01*
X182029000Y-104223816D01*
X182029000Y-104056184D01*
X182061703Y-103891772D01*
X182125853Y-103736900D01*
X182218985Y-103597519D01*
X182337519Y-103478985D01*
X182476900Y-103385853D01*
X182631772Y-103321703D01*
X182796184Y-103289000D01*
X182963816Y-103289000D01*
X183128228Y-103321703D01*
G37*
G36*
X185668228Y-103321703D02*
G01*
X185823100Y-103385853D01*
X185962481Y-103478985D01*
X186081015Y-103597519D01*
X186174147Y-103736900D01*
X186238297Y-103891772D01*
X186271000Y-104056184D01*
X186271000Y-104223816D01*
X186238297Y-104388228D01*
X186174147Y-104543100D01*
X186081015Y-104682481D01*
X185962481Y-104801015D01*
X185823100Y-104894147D01*
X185668228Y-104958297D01*
X185503816Y-104991000D01*
X185336184Y-104991000D01*
X185171772Y-104958297D01*
X185016900Y-104894147D01*
X184877519Y-104801015D01*
X184758985Y-104682481D01*
X184665853Y-104543100D01*
X184601703Y-104388228D01*
X184569000Y-104223816D01*
X184569000Y-104056184D01*
X184601703Y-103891772D01*
X184665853Y-103736900D01*
X184758985Y-103597519D01*
X184877519Y-103478985D01*
X185016900Y-103385853D01*
X185171772Y-103321703D01*
X185336184Y-103289000D01*
X185503816Y-103289000D01*
X185668228Y-103321703D01*
G37*
G36*
X188208228Y-103321703D02*
G01*
X188363100Y-103385853D01*
X188502481Y-103478985D01*
X188621015Y-103597519D01*
X188714147Y-103736900D01*
X188778297Y-103891772D01*
X188811000Y-104056184D01*
X188811000Y-104223816D01*
X188778297Y-104388228D01*
X188714147Y-104543100D01*
X188621015Y-104682481D01*
X188502481Y-104801015D01*
X188363100Y-104894147D01*
X188208228Y-104958297D01*
X188043816Y-104991000D01*
X187876184Y-104991000D01*
X187711772Y-104958297D01*
X187556900Y-104894147D01*
X187417519Y-104801015D01*
X187298985Y-104682481D01*
X187205853Y-104543100D01*
X187141703Y-104388228D01*
X187109000Y-104223816D01*
X187109000Y-104056184D01*
X187141703Y-103891772D01*
X187205853Y-103736900D01*
X187298985Y-103597519D01*
X187417519Y-103478985D01*
X187556900Y-103385853D01*
X187711772Y-103321703D01*
X187876184Y-103289000D01*
X188043816Y-103289000D01*
X188208228Y-103321703D01*
G37*
G36*
X229565803Y-103468150D02*
G01*
X229692959Y-103520820D01*
X229807395Y-103597284D01*
X229904716Y-103694605D01*
X229981181Y-103809043D01*
X230033850Y-103936197D01*
X230060700Y-104071183D01*
X230060700Y-104208817D01*
X230033850Y-104343803D01*
X230015449Y-104388228D01*
X229981180Y-104470959D01*
X229904716Y-104585395D01*
X229807395Y-104682716D01*
X229692959Y-104759180D01*
X229692958Y-104759181D01*
X229692957Y-104759181D01*
X229565803Y-104811850D01*
X229430817Y-104838700D01*
X229293183Y-104838700D01*
X229158197Y-104811850D01*
X229031043Y-104759181D01*
X229031042Y-104759181D01*
X229031041Y-104759180D01*
X228916605Y-104682716D01*
X228819284Y-104585395D01*
X228742820Y-104470959D01*
X228708552Y-104388228D01*
X228690150Y-104343803D01*
X228663300Y-104208817D01*
X228663300Y-104071183D01*
X228690150Y-103936197D01*
X228742819Y-103809043D01*
X228819284Y-103694605D01*
X228916605Y-103597284D01*
X229031041Y-103520820D01*
X229158197Y-103468150D01*
X229293183Y-103441300D01*
X229430817Y-103441300D01*
X229565803Y-103468150D01*
G37*
G36*
X214833803Y-103468150D02*
G01*
X214960959Y-103520820D01*
X215075395Y-103597284D01*
X215172716Y-103694605D01*
X215249181Y-103809043D01*
X215301850Y-103936197D01*
X215328700Y-104071183D01*
X215328700Y-104208817D01*
X215301850Y-104343803D01*
X215283449Y-104388228D01*
X215249180Y-104470959D01*
X215172716Y-104585395D01*
X215075395Y-104682716D01*
X214960959Y-104759180D01*
X214960958Y-104759181D01*
X214960957Y-104759181D01*
X214833803Y-104811850D01*
X214698817Y-104838700D01*
X214561183Y-104838700D01*
X214426197Y-104811850D01*
X214299043Y-104759181D01*
X214299042Y-104759181D01*
X214299041Y-104759180D01*
X214184605Y-104682716D01*
X214087284Y-104585395D01*
X214010820Y-104470959D01*
X213976552Y-104388228D01*
X213958150Y-104343803D01*
X213931300Y-104208817D01*
X213931300Y-104071183D01*
X213958150Y-103936197D01*
X214010819Y-103809043D01*
X214087284Y-103694605D01*
X214184605Y-103597284D01*
X214299041Y-103520820D01*
X214426197Y-103468150D01*
X214561183Y-103441300D01*
X214698817Y-103441300D01*
X214833803Y-103468150D01*
G37*
G36*
X237693803Y-103468150D02*
G01*
X237820959Y-103520820D01*
X237935395Y-103597284D01*
X238032716Y-103694605D01*
X238109181Y-103809043D01*
X238161850Y-103936197D01*
X238188700Y-104071183D01*
X238188700Y-104208817D01*
X238161850Y-104343803D01*
X238143449Y-104388228D01*
X238109180Y-104470959D01*
X238032716Y-104585395D01*
X237935395Y-104682716D01*
X237820959Y-104759180D01*
X237820958Y-104759181D01*
X237820957Y-104759181D01*
X237693803Y-104811850D01*
X237558817Y-104838700D01*
X237421183Y-104838700D01*
X237286197Y-104811850D01*
X237159043Y-104759181D01*
X237159042Y-104759181D01*
X237159041Y-104759180D01*
X237044605Y-104682716D01*
X236947284Y-104585395D01*
X236870820Y-104470959D01*
X236836552Y-104388228D01*
X236818150Y-104343803D01*
X236791300Y-104208817D01*
X236791300Y-104071183D01*
X236818150Y-103936197D01*
X236870819Y-103809043D01*
X236947284Y-103694605D01*
X237044605Y-103597284D01*
X237159041Y-103520820D01*
X237286197Y-103468150D01*
X237421183Y-103441300D01*
X237558817Y-103441300D01*
X237693803Y-103468150D01*
G37*
G36*
X222453803Y-103468150D02*
G01*
X222580959Y-103520820D01*
X222695395Y-103597284D01*
X222792716Y-103694605D01*
X222869181Y-103809043D01*
X222921850Y-103936197D01*
X222948700Y-104071183D01*
X222948700Y-104208817D01*
X222921850Y-104343803D01*
X222903449Y-104388228D01*
X222869180Y-104470959D01*
X222792716Y-104585395D01*
X222695395Y-104682716D01*
X222580959Y-104759180D01*
X222580958Y-104759181D01*
X222580957Y-104759181D01*
X222453803Y-104811850D01*
X222318817Y-104838700D01*
X222181183Y-104838700D01*
X222046197Y-104811850D01*
X221919043Y-104759181D01*
X221919042Y-104759181D01*
X221919041Y-104759180D01*
X221804605Y-104682716D01*
X221707284Y-104585395D01*
X221630820Y-104470959D01*
X221596552Y-104388228D01*
X221578150Y-104343803D01*
X221551300Y-104208817D01*
X221551300Y-104071183D01*
X221578150Y-103936197D01*
X221630819Y-103809043D01*
X221707284Y-103694605D01*
X221804605Y-103597284D01*
X221919041Y-103520820D01*
X222046197Y-103468150D01*
X222181183Y-103441300D01*
X222318817Y-103441300D01*
X222453803Y-103468150D01*
G37*
G36*
X229565803Y-100928150D02*
G01*
X229692959Y-100980820D01*
X229807395Y-101057284D01*
X229904716Y-101154605D01*
X229981180Y-101269041D01*
X230033850Y-101396197D01*
X230060700Y-101531184D01*
X230060700Y-101668816D01*
X230033850Y-101803803D01*
X229981180Y-101930959D01*
X229904716Y-102045395D01*
X229807395Y-102142716D01*
X229692959Y-102219180D01*
X229692958Y-102219181D01*
X229692957Y-102219181D01*
X229565803Y-102271850D01*
X229430817Y-102298700D01*
X229293183Y-102298700D01*
X229158197Y-102271850D01*
X229031043Y-102219181D01*
X229031042Y-102219181D01*
X229031041Y-102219180D01*
X228916605Y-102142716D01*
X228819284Y-102045395D01*
X228742820Y-101930959D01*
X228690150Y-101803803D01*
X228663300Y-101668816D01*
X228663300Y-101531184D01*
X228690150Y-101396197D01*
X228742820Y-101269041D01*
X228819284Y-101154605D01*
X228916605Y-101057284D01*
X229031041Y-100980820D01*
X229158197Y-100928150D01*
X229293183Y-100901300D01*
X229430817Y-100901300D01*
X229565803Y-100928150D01*
G37*
G36*
X222453803Y-100928150D02*
G01*
X222580959Y-100980820D01*
X222695395Y-101057284D01*
X222792716Y-101154605D01*
X222869180Y-101269041D01*
X222921850Y-101396197D01*
X222948700Y-101531184D01*
X222948700Y-101668816D01*
X222921850Y-101803803D01*
X222869180Y-101930959D01*
X222792716Y-102045395D01*
X222695395Y-102142716D01*
X222580959Y-102219180D01*
X222580958Y-102219181D01*
X222580957Y-102219181D01*
X222453803Y-102271850D01*
X222318817Y-102298700D01*
X222181183Y-102298700D01*
X222046197Y-102271850D01*
X221919043Y-102219181D01*
X221919042Y-102219181D01*
X221919041Y-102219180D01*
X221804605Y-102142716D01*
X221707284Y-102045395D01*
X221630820Y-101930959D01*
X221578150Y-101803803D01*
X221551300Y-101668816D01*
X221551300Y-101531184D01*
X221578150Y-101396197D01*
X221630820Y-101269041D01*
X221707284Y-101154605D01*
X221804605Y-101057284D01*
X221919041Y-100980820D01*
X222046197Y-100928150D01*
X222181183Y-100901300D01*
X222318817Y-100901300D01*
X222453803Y-100928150D01*
G37*
G36*
X214833803Y-100928150D02*
G01*
X214960959Y-100980820D01*
X215075395Y-101057284D01*
X215172716Y-101154605D01*
X215249180Y-101269041D01*
X215301850Y-101396197D01*
X215328700Y-101531184D01*
X215328700Y-101668816D01*
X215301850Y-101803803D01*
X215249180Y-101930959D01*
X215172716Y-102045395D01*
X215075395Y-102142716D01*
X214960959Y-102219180D01*
X214960958Y-102219181D01*
X214960957Y-102219181D01*
X214833803Y-102271850D01*
X214698817Y-102298700D01*
X214561183Y-102298700D01*
X214426197Y-102271850D01*
X214299043Y-102219181D01*
X214299042Y-102219181D01*
X214299041Y-102219180D01*
X214184605Y-102142716D01*
X214087284Y-102045395D01*
X214010820Y-101930959D01*
X213958150Y-101803803D01*
X213931300Y-101668816D01*
X213931300Y-101531184D01*
X213958150Y-101396197D01*
X214010820Y-101269041D01*
X214087284Y-101154605D01*
X214184605Y-101057284D01*
X214299041Y-100980820D01*
X214426197Y-100928150D01*
X214561183Y-100901300D01*
X214698817Y-100901300D01*
X214833803Y-100928150D01*
G37*
G36*
X237693803Y-100928150D02*
G01*
X237820959Y-100980820D01*
X237935395Y-101057284D01*
X238032716Y-101154605D01*
X238109180Y-101269041D01*
X238161850Y-101396197D01*
X238188700Y-101531184D01*
X238188700Y-101668816D01*
X238161850Y-101803803D01*
X238109180Y-101930959D01*
X238032716Y-102045395D01*
X237935395Y-102142716D01*
X237820959Y-102219180D01*
X237820958Y-102219181D01*
X237820957Y-102219181D01*
X237693803Y-102271850D01*
X237558817Y-102298700D01*
X237421183Y-102298700D01*
X237286197Y-102271850D01*
X237159043Y-102219181D01*
X237159042Y-102219181D01*
X237159041Y-102219180D01*
X237044605Y-102142716D01*
X236947284Y-102045395D01*
X236870820Y-101930959D01*
X236818150Y-101803803D01*
X236791300Y-101668816D01*
X236791300Y-101531184D01*
X236818150Y-101396197D01*
X236870820Y-101269041D01*
X236947284Y-101154605D01*
X237044605Y-101057284D01*
X237159041Y-100980820D01*
X237286197Y-100928150D01*
X237421183Y-100901300D01*
X237558817Y-100901300D01*
X237693803Y-100928150D01*
G37*
G36*
X237693803Y-98388150D02*
G01*
X237820959Y-98440820D01*
X237935395Y-98517284D01*
X238032716Y-98614605D01*
X238109180Y-98729041D01*
X238161850Y-98856197D01*
X238188700Y-98991184D01*
X238188700Y-99128816D01*
X238161850Y-99263803D01*
X238109180Y-99390959D01*
X238032716Y-99505395D01*
X237935395Y-99602716D01*
X237820959Y-99679180D01*
X237820958Y-99679181D01*
X237820957Y-99679181D01*
X237693803Y-99731850D01*
X237558817Y-99758700D01*
X237421183Y-99758700D01*
X237286197Y-99731850D01*
X237159043Y-99679181D01*
X237159042Y-99679181D01*
X237159041Y-99679180D01*
X237044605Y-99602716D01*
X236947284Y-99505395D01*
X236870820Y-99390959D01*
X236818150Y-99263803D01*
X236791300Y-99128816D01*
X236791300Y-98991184D01*
X236818150Y-98856197D01*
X236870820Y-98729041D01*
X236947284Y-98614605D01*
X237044605Y-98517284D01*
X237159041Y-98440820D01*
X237286197Y-98388150D01*
X237421183Y-98361300D01*
X237558817Y-98361300D01*
X237693803Y-98388150D01*
G37*
G36*
X229565803Y-98388150D02*
G01*
X229692959Y-98440820D01*
X229807395Y-98517284D01*
X229904716Y-98614605D01*
X229981180Y-98729041D01*
X230033850Y-98856197D01*
X230060700Y-98991184D01*
X230060700Y-99128816D01*
X230033850Y-99263803D01*
X229981180Y-99390959D01*
X229904716Y-99505395D01*
X229807395Y-99602716D01*
X229692959Y-99679180D01*
X229692958Y-99679181D01*
X229692957Y-99679181D01*
X229565803Y-99731850D01*
X229430817Y-99758700D01*
X229293183Y-99758700D01*
X229158197Y-99731850D01*
X229031043Y-99679181D01*
X229031042Y-99679181D01*
X229031041Y-99679180D01*
X228916605Y-99602716D01*
X228819284Y-99505395D01*
X228742820Y-99390959D01*
X228690150Y-99263803D01*
X228663300Y-99128816D01*
X228663300Y-98991184D01*
X228690150Y-98856197D01*
X228742820Y-98729041D01*
X228819284Y-98614605D01*
X228916605Y-98517284D01*
X229031041Y-98440820D01*
X229158197Y-98388150D01*
X229293183Y-98361300D01*
X229430817Y-98361300D01*
X229565803Y-98388150D01*
G37*
G36*
X214833803Y-98388150D02*
G01*
X214960959Y-98440820D01*
X215075395Y-98517284D01*
X215172716Y-98614605D01*
X215249180Y-98729041D01*
X215301850Y-98856197D01*
X215328700Y-98991184D01*
X215328700Y-99128816D01*
X215301850Y-99263803D01*
X215249180Y-99390959D01*
X215172716Y-99505395D01*
X215075395Y-99602716D01*
X214960959Y-99679180D01*
X214960958Y-99679181D01*
X214960957Y-99679181D01*
X214833803Y-99731850D01*
X214698817Y-99758700D01*
X214561183Y-99758700D01*
X214426197Y-99731850D01*
X214299043Y-99679181D01*
X214299042Y-99679181D01*
X214299041Y-99679180D01*
X214184605Y-99602716D01*
X214087284Y-99505395D01*
X214010820Y-99390959D01*
X213958150Y-99263803D01*
X213931300Y-99128816D01*
X213931300Y-98991184D01*
X213958150Y-98856197D01*
X214010820Y-98729041D01*
X214087284Y-98614605D01*
X214184605Y-98517284D01*
X214299041Y-98440820D01*
X214426197Y-98388150D01*
X214561183Y-98361300D01*
X214698817Y-98361300D01*
X214833803Y-98388150D01*
G37*
G36*
X222453803Y-98388150D02*
G01*
X222580959Y-98440820D01*
X222695395Y-98517284D01*
X222792716Y-98614605D01*
X222869180Y-98729041D01*
X222921850Y-98856197D01*
X222948700Y-98991184D01*
X222948700Y-99128816D01*
X222921850Y-99263803D01*
X222869180Y-99390959D01*
X222792716Y-99505395D01*
X222695395Y-99602716D01*
X222580959Y-99679180D01*
X222580958Y-99679181D01*
X222580957Y-99679181D01*
X222453803Y-99731850D01*
X222318817Y-99758700D01*
X222181183Y-99758700D01*
X222046197Y-99731850D01*
X221919043Y-99679181D01*
X221919042Y-99679181D01*
X221919041Y-99679180D01*
X221804605Y-99602716D01*
X221707284Y-99505395D01*
X221630820Y-99390959D01*
X221578150Y-99263803D01*
X221551300Y-99128816D01*
X221551300Y-98991184D01*
X221578150Y-98856197D01*
X221630820Y-98729041D01*
X221707284Y-98614605D01*
X221804605Y-98517284D01*
X221919041Y-98440820D01*
X222046197Y-98388150D01*
X222181183Y-98361300D01*
X222318817Y-98361300D01*
X222453803Y-98388150D01*
G37*
G36*
X179183512Y-95623927D02*
G01*
X179332812Y-95653624D01*
X179496784Y-95721544D01*
X179644354Y-95820147D01*
X179769853Y-95945646D01*
X179868456Y-96093216D01*
X179936376Y-96257188D01*
X179971000Y-96431259D01*
X179971000Y-96608741D01*
X179936376Y-96782812D01*
X179868456Y-96946784D01*
X179769853Y-97094354D01*
X179644354Y-97219853D01*
X179496784Y-97318456D01*
X179332812Y-97386376D01*
X179183512Y-97416073D01*
X179158742Y-97421000D01*
X178981258Y-97421000D01*
X178956488Y-97416073D01*
X178807188Y-97386376D01*
X178643216Y-97318456D01*
X178495646Y-97219853D01*
X178370147Y-97094354D01*
X178271544Y-96946784D01*
X178203624Y-96782812D01*
X178169000Y-96608741D01*
X178169000Y-96431259D01*
X178203624Y-96257188D01*
X178271544Y-96093216D01*
X178370147Y-95945646D01*
X178495646Y-95820147D01*
X178643216Y-95721544D01*
X178807188Y-95653624D01*
X178956488Y-95623927D01*
X178981258Y-95619000D01*
X179158742Y-95619000D01*
X179183512Y-95623927D01*
G37*
G36*
X167271000Y-97421000D02*
G01*
X165469000Y-97421000D01*
X165469000Y-95619000D01*
X167271000Y-95619000D01*
X167271000Y-97421000D01*
G37*
G36*
X169023512Y-95623927D02*
G01*
X169172812Y-95653624D01*
X169336784Y-95721544D01*
X169484354Y-95820147D01*
X169609853Y-95945646D01*
X169708456Y-96093216D01*
X169776376Y-96257188D01*
X169811000Y-96431259D01*
X169811000Y-96608741D01*
X169776376Y-96782812D01*
X169708456Y-96946784D01*
X169609853Y-97094354D01*
X169484354Y-97219853D01*
X169336784Y-97318456D01*
X169172812Y-97386376D01*
X169023512Y-97416073D01*
X168998742Y-97421000D01*
X168821258Y-97421000D01*
X168796488Y-97416073D01*
X168647188Y-97386376D01*
X168483216Y-97318456D01*
X168335646Y-97219853D01*
X168210147Y-97094354D01*
X168111544Y-96946784D01*
X168043624Y-96782812D01*
X168009000Y-96608741D01*
X168009000Y-96431259D01*
X168043624Y-96257188D01*
X168111544Y-96093216D01*
X168210147Y-95945646D01*
X168335646Y-95820147D01*
X168483216Y-95721544D01*
X168647188Y-95653624D01*
X168796488Y-95623927D01*
X168821258Y-95619000D01*
X168998742Y-95619000D01*
X169023512Y-95623927D01*
G37*
G36*
X174103512Y-95623927D02*
G01*
X174252812Y-95653624D01*
X174416784Y-95721544D01*
X174564354Y-95820147D01*
X174689853Y-95945646D01*
X174788456Y-96093216D01*
X174856376Y-96257188D01*
X174891000Y-96431259D01*
X174891000Y-96608741D01*
X174856376Y-96782812D01*
X174788456Y-96946784D01*
X174689853Y-97094354D01*
X174564354Y-97219853D01*
X174416784Y-97318456D01*
X174252812Y-97386376D01*
X174103512Y-97416073D01*
X174078742Y-97421000D01*
X173901258Y-97421000D01*
X173876488Y-97416073D01*
X173727188Y-97386376D01*
X173563216Y-97318456D01*
X173415646Y-97219853D01*
X173290147Y-97094354D01*
X173191544Y-96946784D01*
X173123624Y-96782812D01*
X173089000Y-96608741D01*
X173089000Y-96431259D01*
X173123624Y-96257188D01*
X173191544Y-96093216D01*
X173290147Y-95945646D01*
X173415646Y-95820147D01*
X173563216Y-95721544D01*
X173727188Y-95653624D01*
X173876488Y-95623927D01*
X173901258Y-95619000D01*
X174078742Y-95619000D01*
X174103512Y-95623927D01*
G37*
G36*
X176643512Y-95623927D02*
G01*
X176792812Y-95653624D01*
X176956784Y-95721544D01*
X177104354Y-95820147D01*
X177229853Y-95945646D01*
X177328456Y-96093216D01*
X177396376Y-96257188D01*
X177431000Y-96431259D01*
X177431000Y-96608741D01*
X177396376Y-96782812D01*
X177328456Y-96946784D01*
X177229853Y-97094354D01*
X177104354Y-97219853D01*
X176956784Y-97318456D01*
X176792812Y-97386376D01*
X176643512Y-97416073D01*
X176618742Y-97421000D01*
X176441258Y-97421000D01*
X176416488Y-97416073D01*
X176267188Y-97386376D01*
X176103216Y-97318456D01*
X175955646Y-97219853D01*
X175830147Y-97094354D01*
X175731544Y-96946784D01*
X175663624Y-96782812D01*
X175629000Y-96608741D01*
X175629000Y-96431259D01*
X175663624Y-96257188D01*
X175731544Y-96093216D01*
X175830147Y-95945646D01*
X175955646Y-95820147D01*
X176103216Y-95721544D01*
X176267188Y-95653624D01*
X176416488Y-95623927D01*
X176441258Y-95619000D01*
X176618742Y-95619000D01*
X176643512Y-95623927D01*
G37*
G36*
X171563512Y-95623927D02*
G01*
X171712812Y-95653624D01*
X171876784Y-95721544D01*
X172024354Y-95820147D01*
X172149853Y-95945646D01*
X172248456Y-96093216D01*
X172316376Y-96257188D01*
X172351000Y-96431259D01*
X172351000Y-96608741D01*
X172316376Y-96782812D01*
X172248456Y-96946784D01*
X172149853Y-97094354D01*
X172024354Y-97219853D01*
X171876784Y-97318456D01*
X171712812Y-97386376D01*
X171563512Y-97416073D01*
X171538742Y-97421000D01*
X171361258Y-97421000D01*
X171336488Y-97416073D01*
X171187188Y-97386376D01*
X171023216Y-97318456D01*
X170875646Y-97219853D01*
X170750147Y-97094354D01*
X170651544Y-96946784D01*
X170583624Y-96782812D01*
X170549000Y-96608741D01*
X170549000Y-96431259D01*
X170583624Y-96257188D01*
X170651544Y-96093216D01*
X170750147Y-95945646D01*
X170875646Y-95820147D01*
X171023216Y-95721544D01*
X171187188Y-95653624D01*
X171336488Y-95623927D01*
X171361258Y-95619000D01*
X171538742Y-95619000D01*
X171563512Y-95623927D01*
G37*
G36*
X222453803Y-95848150D02*
G01*
X222580959Y-95900820D01*
X222695395Y-95977284D01*
X222792716Y-96074605D01*
X222869180Y-96189041D01*
X222921850Y-96316197D01*
X222948700Y-96451184D01*
X222948700Y-96588816D01*
X222921850Y-96723803D01*
X222869180Y-96850959D01*
X222792716Y-96965395D01*
X222695395Y-97062716D01*
X222580959Y-97139180D01*
X222580958Y-97139181D01*
X222580957Y-97139181D01*
X222453803Y-97191850D01*
X222318817Y-97218700D01*
X222181183Y-97218700D01*
X222046197Y-97191850D01*
X221919043Y-97139181D01*
X221919042Y-97139181D01*
X221919041Y-97139180D01*
X221804605Y-97062716D01*
X221707284Y-96965395D01*
X221630820Y-96850959D01*
X221578150Y-96723803D01*
X221551300Y-96588816D01*
X221551300Y-96451184D01*
X221578150Y-96316197D01*
X221630820Y-96189041D01*
X221707284Y-96074605D01*
X221804605Y-95977284D01*
X221919041Y-95900820D01*
X222046197Y-95848150D01*
X222181183Y-95821300D01*
X222318817Y-95821300D01*
X222453803Y-95848150D01*
G37*
G36*
X229565803Y-95848150D02*
G01*
X229692959Y-95900820D01*
X229807395Y-95977284D01*
X229904716Y-96074605D01*
X229981180Y-96189041D01*
X230033850Y-96316197D01*
X230060700Y-96451184D01*
X230060700Y-96588816D01*
X230033850Y-96723803D01*
X229981180Y-96850959D01*
X229904716Y-96965395D01*
X229807395Y-97062716D01*
X229692959Y-97139180D01*
X229692958Y-97139181D01*
X229692957Y-97139181D01*
X229565803Y-97191850D01*
X229430817Y-97218700D01*
X229293183Y-97218700D01*
X229158197Y-97191850D01*
X229031043Y-97139181D01*
X229031042Y-97139181D01*
X229031041Y-97139180D01*
X228916605Y-97062716D01*
X228819284Y-96965395D01*
X228742820Y-96850959D01*
X228690150Y-96723803D01*
X228663300Y-96588816D01*
X228663300Y-96451184D01*
X228690150Y-96316197D01*
X228742820Y-96189041D01*
X228819284Y-96074605D01*
X228916605Y-95977284D01*
X229031041Y-95900820D01*
X229158197Y-95848150D01*
X229293183Y-95821300D01*
X229430817Y-95821300D01*
X229565803Y-95848150D01*
G37*
G36*
X237693803Y-95848150D02*
G01*
X237820959Y-95900820D01*
X237935395Y-95977284D01*
X238032716Y-96074605D01*
X238109180Y-96189041D01*
X238161850Y-96316197D01*
X238188700Y-96451184D01*
X238188700Y-96588816D01*
X238161850Y-96723803D01*
X238109180Y-96850959D01*
X238032716Y-96965395D01*
X237935395Y-97062716D01*
X237820959Y-97139180D01*
X237820958Y-97139181D01*
X237820957Y-97139181D01*
X237693803Y-97191850D01*
X237558817Y-97218700D01*
X237421183Y-97218700D01*
X237286197Y-97191850D01*
X237159043Y-97139181D01*
X237159042Y-97139181D01*
X237159041Y-97139180D01*
X237044605Y-97062716D01*
X236947284Y-96965395D01*
X236870820Y-96850959D01*
X236818150Y-96723803D01*
X236791300Y-96588816D01*
X236791300Y-96451184D01*
X236818150Y-96316197D01*
X236870820Y-96189041D01*
X236947284Y-96074605D01*
X237044605Y-95977284D01*
X237159041Y-95900820D01*
X237286197Y-95848150D01*
X237421183Y-95821300D01*
X237558817Y-95821300D01*
X237693803Y-95848150D01*
G37*
G36*
X214833803Y-95848150D02*
G01*
X214960959Y-95900820D01*
X215075395Y-95977284D01*
X215172716Y-96074605D01*
X215249180Y-96189041D01*
X215301850Y-96316197D01*
X215328700Y-96451184D01*
X215328700Y-96588816D01*
X215301850Y-96723803D01*
X215249180Y-96850959D01*
X215172716Y-96965395D01*
X215075395Y-97062716D01*
X214960959Y-97139180D01*
X214960958Y-97139181D01*
X214960957Y-97139181D01*
X214833803Y-97191850D01*
X214698817Y-97218700D01*
X214561183Y-97218700D01*
X214426197Y-97191850D01*
X214299043Y-97139181D01*
X214299042Y-97139181D01*
X214299041Y-97139180D01*
X214184605Y-97062716D01*
X214087284Y-96965395D01*
X214010820Y-96850959D01*
X213958150Y-96723803D01*
X213931300Y-96588816D01*
X213931300Y-96451184D01*
X213958150Y-96316197D01*
X214010820Y-96189041D01*
X214087284Y-96074605D01*
X214184605Y-95977284D01*
X214299041Y-95900820D01*
X214426197Y-95848150D01*
X214561183Y-95821300D01*
X214698817Y-95821300D01*
X214833803Y-95848150D01*
G37*
G36*
X230060700Y-94678700D02*
G01*
X228663300Y-94678700D01*
X228663300Y-93281300D01*
X230060700Y-93281300D01*
X230060700Y-94678700D01*
G37*
G36*
X237693803Y-93308150D02*
G01*
X237820959Y-93360820D01*
X237935395Y-93437284D01*
X238032716Y-93534605D01*
X238109180Y-93649041D01*
X238161850Y-93776197D01*
X238188700Y-93911184D01*
X238188700Y-94048816D01*
X238161850Y-94183803D01*
X238109180Y-94310959D01*
X238032716Y-94425395D01*
X237935395Y-94522716D01*
X237820959Y-94599180D01*
X237820958Y-94599181D01*
X237820957Y-94599181D01*
X237693803Y-94651850D01*
X237558817Y-94678700D01*
X237421183Y-94678700D01*
X237286197Y-94651850D01*
X237159043Y-94599181D01*
X237159042Y-94599181D01*
X237159041Y-94599180D01*
X237044605Y-94522716D01*
X236947284Y-94425395D01*
X236870820Y-94310959D01*
X236818150Y-94183803D01*
X236791300Y-94048816D01*
X236791300Y-93911184D01*
X236818150Y-93776197D01*
X236870820Y-93649041D01*
X236947284Y-93534605D01*
X237044605Y-93437284D01*
X237159041Y-93360820D01*
X237286197Y-93308150D01*
X237421183Y-93281300D01*
X237558817Y-93281300D01*
X237693803Y-93308150D01*
G37*
G36*
X222453803Y-93308150D02*
G01*
X222580959Y-93360820D01*
X222695395Y-93437284D01*
X222792716Y-93534605D01*
X222869180Y-93649041D01*
X222921850Y-93776197D01*
X222948700Y-93911184D01*
X222948700Y-94048816D01*
X222921850Y-94183803D01*
X222869180Y-94310959D01*
X222792716Y-94425395D01*
X222695395Y-94522716D01*
X222580959Y-94599180D01*
X222580958Y-94599181D01*
X222580957Y-94599181D01*
X222453803Y-94651850D01*
X222318817Y-94678700D01*
X222181183Y-94678700D01*
X222046197Y-94651850D01*
X221919043Y-94599181D01*
X221919042Y-94599181D01*
X221919041Y-94599180D01*
X221804605Y-94522716D01*
X221707284Y-94425395D01*
X221630820Y-94310959D01*
X221578150Y-94183803D01*
X221551300Y-94048816D01*
X221551300Y-93911184D01*
X221578150Y-93776197D01*
X221630820Y-93649041D01*
X221707284Y-93534605D01*
X221804605Y-93437284D01*
X221919041Y-93360820D01*
X222046197Y-93308150D01*
X222181183Y-93281300D01*
X222318817Y-93281300D01*
X222453803Y-93308150D01*
G37*
G36*
X214833803Y-93308150D02*
G01*
X214960959Y-93360820D01*
X215075395Y-93437284D01*
X215172716Y-93534605D01*
X215249180Y-93649041D01*
X215301850Y-93776197D01*
X215328700Y-93911184D01*
X215328700Y-94048816D01*
X215301850Y-94183803D01*
X215249180Y-94310959D01*
X215172716Y-94425395D01*
X215075395Y-94522716D01*
X214960959Y-94599180D01*
X214960958Y-94599181D01*
X214960957Y-94599181D01*
X214833803Y-94651850D01*
X214698817Y-94678700D01*
X214561183Y-94678700D01*
X214426197Y-94651850D01*
X214299043Y-94599181D01*
X214299042Y-94599181D01*
X214299041Y-94599180D01*
X214184605Y-94522716D01*
X214087284Y-94425395D01*
X214010820Y-94310959D01*
X213958150Y-94183803D01*
X213931300Y-94048816D01*
X213931300Y-93911184D01*
X213958150Y-93776197D01*
X214010820Y-93649041D01*
X214087284Y-93534605D01*
X214184605Y-93437284D01*
X214299041Y-93360820D01*
X214426197Y-93308150D01*
X214561183Y-93281300D01*
X214698817Y-93281300D01*
X214833803Y-93308150D01*
G37*
G36*
X214833803Y-90768150D02*
G01*
X214960959Y-90820820D01*
X215075395Y-90897284D01*
X215172716Y-90994605D01*
X215249180Y-91109041D01*
X215301850Y-91236197D01*
X215328700Y-91371184D01*
X215328700Y-91508816D01*
X215301850Y-91643803D01*
X215249180Y-91770959D01*
X215172716Y-91885395D01*
X215075395Y-91982716D01*
X214960959Y-92059180D01*
X214960958Y-92059181D01*
X214960957Y-92059181D01*
X214833803Y-92111850D01*
X214698817Y-92138700D01*
X214561183Y-92138700D01*
X214426197Y-92111850D01*
X214299043Y-92059181D01*
X214299042Y-92059181D01*
X214299041Y-92059180D01*
X214184605Y-91982716D01*
X214087284Y-91885395D01*
X214010820Y-91770959D01*
X213958150Y-91643803D01*
X213931300Y-91508816D01*
X213931300Y-91371184D01*
X213958150Y-91236197D01*
X214010820Y-91109041D01*
X214087284Y-90994605D01*
X214184605Y-90897284D01*
X214299041Y-90820820D01*
X214426197Y-90768150D01*
X214561183Y-90741300D01*
X214698817Y-90741300D01*
X214833803Y-90768150D01*
G37*
G36*
X222453803Y-90768150D02*
G01*
X222580959Y-90820820D01*
X222695395Y-90897284D01*
X222792716Y-90994605D01*
X222869180Y-91109041D01*
X222921850Y-91236197D01*
X222948700Y-91371184D01*
X222948700Y-91508816D01*
X222921850Y-91643803D01*
X222869180Y-91770959D01*
X222792716Y-91885395D01*
X222695395Y-91982716D01*
X222580959Y-92059180D01*
X222580958Y-92059181D01*
X222580957Y-92059181D01*
X222453803Y-92111850D01*
X222318817Y-92138700D01*
X222181183Y-92138700D01*
X222046197Y-92111850D01*
X221919043Y-92059181D01*
X221919042Y-92059181D01*
X221919041Y-92059180D01*
X221804605Y-91982716D01*
X221707284Y-91885395D01*
X221630820Y-91770959D01*
X221578150Y-91643803D01*
X221551300Y-91508816D01*
X221551300Y-91371184D01*
X221578150Y-91236197D01*
X221630820Y-91109041D01*
X221707284Y-90994605D01*
X221804605Y-90897284D01*
X221919041Y-90820820D01*
X222046197Y-90768150D01*
X222181183Y-90741300D01*
X222318817Y-90741300D01*
X222453803Y-90768150D01*
G37*
G36*
X215328700Y-89598700D02*
G01*
X213931300Y-89598700D01*
X213931300Y-88201300D01*
X215328700Y-88201300D01*
X215328700Y-89598700D01*
G37*
G36*
X222453803Y-88228150D02*
G01*
X222580959Y-88280820D01*
X222695395Y-88357284D01*
X222792716Y-88454605D01*
X222868051Y-88567351D01*
X222869181Y-88569043D01*
X222874134Y-88581000D01*
X222921850Y-88696197D01*
X222948700Y-88831184D01*
X222948700Y-88968816D01*
X222921850Y-89103803D01*
X222869180Y-89230959D01*
X222792716Y-89345395D01*
X222695395Y-89442716D01*
X222580959Y-89519180D01*
X222580958Y-89519181D01*
X222580957Y-89519181D01*
X222453803Y-89571850D01*
X222318817Y-89598700D01*
X222181183Y-89598700D01*
X222046197Y-89571850D01*
X221919043Y-89519181D01*
X221919042Y-89519181D01*
X221919041Y-89519180D01*
X221804605Y-89442716D01*
X221707284Y-89345395D01*
X221630820Y-89230959D01*
X221578150Y-89103803D01*
X221551300Y-88968816D01*
X221551300Y-88831184D01*
X221578150Y-88696197D01*
X221625866Y-88581000D01*
X221630819Y-88569043D01*
X221631950Y-88567351D01*
X221707284Y-88454605D01*
X221804605Y-88357284D01*
X221919041Y-88280820D01*
X222046197Y-88228150D01*
X222181183Y-88201300D01*
X222318817Y-88201300D01*
X222453803Y-88228150D01*
G37*
G36*
X203477395Y-86715546D02*
G01*
X203650466Y-86787234D01*
X203727818Y-86838919D01*
X203806227Y-86891310D01*
X203938690Y-87023773D01*
X203938691Y-87023775D01*
X204042766Y-87179534D01*
X204114454Y-87352605D01*
X204151000Y-87536333D01*
X204151000Y-87723667D01*
X204114454Y-87907395D01*
X204042766Y-88080466D01*
X204042765Y-88080467D01*
X203938690Y-88236227D01*
X203806227Y-88368690D01*
X203804669Y-88369731D01*
X203650466Y-88472766D01*
X203477395Y-88544454D01*
X203293667Y-88581000D01*
X203106333Y-88581000D01*
X202922605Y-88544454D01*
X202749534Y-88472766D01*
X202595331Y-88369731D01*
X202593773Y-88368690D01*
X202461310Y-88236227D01*
X202357235Y-88080467D01*
X202357234Y-88080466D01*
X202285546Y-87907395D01*
X202249000Y-87723667D01*
X202249000Y-87536333D01*
X202285546Y-87352605D01*
X202357234Y-87179534D01*
X202461309Y-87023775D01*
X202461310Y-87023773D01*
X202593773Y-86891310D01*
X202672182Y-86838919D01*
X202749534Y-86787234D01*
X202922605Y-86715546D01*
X203106333Y-86679000D01*
X203293667Y-86679000D01*
X203477395Y-86715546D01*
G37*
G36*
X201472457Y-86682897D02*
G01*
X201504602Y-86692649D01*
X201534230Y-86708485D01*
X201560201Y-86729799D01*
X201581515Y-86755770D01*
X201597351Y-86785398D01*
X201607103Y-86817543D01*
X201611000Y-86857114D01*
X201611000Y-88402886D01*
X201607103Y-88442457D01*
X201597351Y-88474602D01*
X201581515Y-88504230D01*
X201560201Y-88530201D01*
X201534230Y-88551515D01*
X201504602Y-88567351D01*
X201472457Y-88577103D01*
X201432886Y-88581000D01*
X199887114Y-88581000D01*
X199847543Y-88577103D01*
X199815398Y-88567351D01*
X199785770Y-88551515D01*
X199759799Y-88530201D01*
X199738485Y-88504230D01*
X199722649Y-88474602D01*
X199712897Y-88442457D01*
X199709000Y-88402886D01*
X199709000Y-86857114D01*
X199712897Y-86817543D01*
X199722649Y-86785398D01*
X199738485Y-86755770D01*
X199759799Y-86729799D01*
X199785770Y-86708485D01*
X199815398Y-86692649D01*
X199847543Y-86682897D01*
X199887114Y-86679000D01*
X201432886Y-86679000D01*
X201472457Y-86682897D01*
G37*
G36*
X206017395Y-86715546D02*
G01*
X206190466Y-86787234D01*
X206267818Y-86838919D01*
X206346227Y-86891310D01*
X206478690Y-87023773D01*
X206478691Y-87023775D01*
X206582766Y-87179534D01*
X206654454Y-87352605D01*
X206691000Y-87536333D01*
X206691000Y-87723667D01*
X206654454Y-87907395D01*
X206582766Y-88080466D01*
X206582765Y-88080467D01*
X206478690Y-88236227D01*
X206346227Y-88368690D01*
X206344669Y-88369731D01*
X206190466Y-88472766D01*
X206017395Y-88544454D01*
X205833667Y-88581000D01*
X205646333Y-88581000D01*
X205462605Y-88544454D01*
X205289534Y-88472766D01*
X205135331Y-88369731D01*
X205133773Y-88368690D01*
X205001310Y-88236227D01*
X204897235Y-88080467D01*
X204897234Y-88080466D01*
X204825546Y-87907395D01*
X204789000Y-87723667D01*
X204789000Y-87536333D01*
X204825546Y-87352605D01*
X204897234Y-87179534D01*
X205001309Y-87023775D01*
X205001310Y-87023773D01*
X205133773Y-86891310D01*
X205212182Y-86838919D01*
X205289534Y-86787234D01*
X205462605Y-86715546D01*
X205646333Y-86679000D01*
X205833667Y-86679000D01*
X206017395Y-86715546D01*
G37*
M02*
