M48
; DRILL file {KiCad (5.1.5-0-10_14)} date Monday, December 23, 2019 at 01:06:57 PM
; FORMAT={-:-/ absolute / inch / decimal}
; #@! TF.CreationDate,2019-12-23T13:06:57-05:00
; #@! TF.GenerationSoftware,Kicad,Pcbnew,(5.1.5-0-10_14)
; #@! TF.FileFunction,Plated,1,4,PTH
FMAT,2
INCH
T1C0.0197
T2C0.0310
T3C0.0354
T4C0.0394
T5C0.0433
T6C0.0437
T7C0.0472
T8C0.0669
%
G90
G05
T1
X7.4Y-5.0
X7.4Y-5.15
T2
X9.03Y-3.7
X9.03Y-3.8
X9.03Y-3.9
X9.03Y-4.0
X9.03Y-4.1
X9.03Y-4.2
X9.03Y-4.3
X9.03Y-4.4
X9.35Y-3.7
X9.35Y-3.8
X9.35Y-3.9
X9.35Y-4.0
X9.35Y-4.1
X9.35Y-4.2
X9.35Y-4.3
X9.35Y-4.4
X8.45Y-3.5
X8.45Y-3.6
X8.45Y-3.7
X8.45Y-3.8
X8.45Y-3.9
X8.45Y-4.0
X8.45Y-4.1
X8.45Y-4.2
X8.45Y-4.3
X8.45Y-4.4
X8.75Y-3.5
X8.75Y-3.6
X8.75Y-3.7
X8.75Y-3.8
X8.75Y-3.9
X8.75Y-4.0
X8.75Y-4.1
X8.75Y-4.2
X8.75Y-4.3
X8.75Y-4.4
T3
X6.2Y-4.25
X6.3Y-4.25
X8.875Y-4.9
X8.925Y-4.8
X8.975Y-4.9
X9.025Y-4.8
X9.075Y-4.9
X9.125Y-4.8
X9.175Y-4.9
X9.225Y-4.8
X7.9Y-3.45
X8.0Y-3.45
X8.1Y-3.45
X8.075Y-4.9
X8.125Y-4.8
X8.175Y-4.9
X8.225Y-4.8
X8.275Y-4.9
X8.325Y-4.8
X8.375Y-4.9
X8.425Y-4.8
T4
X6.55Y-3.8
X6.65Y-3.8
X6.75Y-3.8
X6.85Y-3.8
X6.95Y-3.8
X7.05Y-3.8
T5
X7.1Y-4.1
X7.1Y-4.2
X7.1Y-4.3
X7.1Y-4.4
X7.1Y-4.5
X7.1Y-4.6
X7.1Y-4.7
X7.1Y-4.8
X7.1Y-4.9
X7.1Y-5.0
X7.1Y-5.1
X7.1Y-5.2
X7.1Y-5.3
X7.1Y-5.4
X7.2Y-4.1
X7.2Y-4.9
X7.2Y-5.0
X7.2Y-5.1
X7.2Y-5.3
X7.3Y-4.1
X7.4Y-4.1
X7.5Y-4.1
X7.6Y-4.1
X7.7Y-4.1
X7.7Y-4.2
X7.7Y-4.3
X7.7Y-4.4
X7.7Y-4.5
X7.7Y-4.6
X7.7Y-4.7
X7.7Y-4.8
X7.7Y-4.9
X7.7Y-5.0
X7.7Y-5.1
X7.7Y-5.2
X7.7Y-5.3
X7.7Y-5.4
T6
X5.95Y-4.7
X5.95Y-4.8
X5.95Y-4.9
X5.95Y-5.0
X5.95Y-5.1
X5.95Y-5.2
X6.75Y-4.7
X6.75Y-4.8
X6.75Y-4.9
X6.75Y-5.0
X6.75Y-5.1
X6.75Y-5.2
T7
X6.95Y-4.5
X6.95Y-4.8
T8
X8.7463Y-5.2701
X9.3537Y-5.2701
X7.9463Y-5.2701
X8.5537Y-5.2701
T0
M30
