G04 #@! TF.GenerationSoftware,KiCad,Pcbnew,(5.1.5-0-10_14)*
G04 #@! TF.CreationDate,2020-01-09T16:24:32-05:00*
G04 #@! TF.ProjectId,branchControllerPCB,6272616e-6368-4436-9f6e-74726f6c6c65,rev?*
G04 #@! TF.SameCoordinates,Original*
G04 #@! TF.FileFunction,Legend,Bot*
G04 #@! TF.FilePolarity,Positive*
%FSLAX46Y46*%
G04 Gerber Fmt 4.6, Leading zero omitted, Abs format (unit mm)*
G04 Created by KiCad (PCBNEW (5.1.5-0-10_14)) date 2020-01-09 16:24:32*
%MOMM*%
%LPD*%
G04 APERTURE LIST*
%ADD10C,0.150000*%
G04 APERTURE END LIST*
D10*
X189221904Y-136612380D02*
X189221904Y-137421904D01*
X189174285Y-137517142D01*
X189126666Y-137564761D01*
X189031428Y-137612380D01*
X188840952Y-137612380D01*
X188745714Y-137564761D01*
X188698095Y-137517142D01*
X188650476Y-137421904D01*
X188650476Y-136612380D01*
X188221904Y-137564761D02*
X188079047Y-137612380D01*
X187840952Y-137612380D01*
X187745714Y-137564761D01*
X187698095Y-137517142D01*
X187650476Y-137421904D01*
X187650476Y-137326666D01*
X187698095Y-137231428D01*
X187745714Y-137183809D01*
X187840952Y-137136190D01*
X188031428Y-137088571D01*
X188126666Y-137040952D01*
X188174285Y-136993333D01*
X188221904Y-136898095D01*
X188221904Y-136802857D01*
X188174285Y-136707619D01*
X188126666Y-136660000D01*
X188031428Y-136612380D01*
X187793333Y-136612380D01*
X187650476Y-136660000D01*
X186888571Y-137088571D02*
X186745714Y-137136190D01*
X186698095Y-137183809D01*
X186650476Y-137279047D01*
X186650476Y-137421904D01*
X186698095Y-137517142D01*
X186745714Y-137564761D01*
X186840952Y-137612380D01*
X187221904Y-137612380D01*
X187221904Y-136612380D01*
X186888571Y-136612380D01*
X186793333Y-136660000D01*
X186745714Y-136707619D01*
X186698095Y-136802857D01*
X186698095Y-136898095D01*
X186745714Y-136993333D01*
X186793333Y-137040952D01*
X186888571Y-137088571D01*
X187221904Y-137088571D01*
X164718571Y-137088571D02*
X164385238Y-137088571D01*
X164242380Y-137612380D02*
X164718571Y-137612380D01*
X164718571Y-136612380D01*
X164242380Y-136612380D01*
X163956666Y-136612380D02*
X163385238Y-136612380D01*
X163670952Y-137612380D02*
X163670952Y-136612380D01*
X163051904Y-137612380D02*
X163051904Y-136612380D01*
X163051904Y-137088571D02*
X162480476Y-137088571D01*
X162480476Y-137612380D02*
X162480476Y-136612380D01*
X162004285Y-137088571D02*
X161670952Y-137088571D01*
X161528095Y-137612380D02*
X162004285Y-137612380D01*
X162004285Y-136612380D01*
X161528095Y-136612380D01*
X160528095Y-137612380D02*
X160861428Y-137136190D01*
X161099523Y-137612380D02*
X161099523Y-136612380D01*
X160718571Y-136612380D01*
X160623333Y-136660000D01*
X160575714Y-136707619D01*
X160528095Y-136802857D01*
X160528095Y-136945714D01*
X160575714Y-137040952D01*
X160623333Y-137088571D01*
X160718571Y-137136190D01*
X161099523Y-137136190D01*
X160099523Y-137612380D02*
X160099523Y-136612380D01*
X159528095Y-137612380D01*
X159528095Y-136612380D01*
X159051904Y-137088571D02*
X158718571Y-137088571D01*
X158575714Y-137612380D02*
X159051904Y-137612380D01*
X159051904Y-136612380D01*
X158575714Y-136612380D01*
X158290000Y-136612380D02*
X157718571Y-136612380D01*
X158004285Y-137612380D02*
X158004285Y-136612380D01*
X213413333Y-76652380D02*
X213413333Y-75652380D01*
X212984761Y-76652380D02*
X212984761Y-76128571D01*
X213032380Y-76033333D01*
X213127619Y-75985714D01*
X213270476Y-75985714D01*
X213365714Y-76033333D01*
X213413333Y-76080952D01*
X212651428Y-75985714D02*
X212270476Y-75985714D01*
X212508571Y-75652380D02*
X212508571Y-76509523D01*
X212460952Y-76604761D01*
X212365714Y-76652380D01*
X212270476Y-76652380D01*
X212080000Y-75985714D02*
X211699047Y-75985714D01*
X211937142Y-75652380D02*
X211937142Y-76509523D01*
X211889523Y-76604761D01*
X211794285Y-76652380D01*
X211699047Y-76652380D01*
X211365714Y-75985714D02*
X211365714Y-76985714D01*
X211365714Y-76033333D02*
X211270476Y-75985714D01*
X211080000Y-75985714D01*
X210984761Y-76033333D01*
X210937142Y-76080952D01*
X210889523Y-76176190D01*
X210889523Y-76461904D01*
X210937142Y-76557142D01*
X210984761Y-76604761D01*
X211080000Y-76652380D01*
X211270476Y-76652380D01*
X211365714Y-76604761D01*
X210508571Y-76604761D02*
X210413333Y-76652380D01*
X210222857Y-76652380D01*
X210127619Y-76604761D01*
X210080000Y-76509523D01*
X210080000Y-76461904D01*
X210127619Y-76366666D01*
X210222857Y-76319047D01*
X210365714Y-76319047D01*
X210460952Y-76271428D01*
X210508571Y-76176190D01*
X210508571Y-76128571D01*
X210460952Y-76033333D01*
X210365714Y-75985714D01*
X210222857Y-75985714D01*
X210127619Y-76033333D01*
X209651428Y-76557142D02*
X209603809Y-76604761D01*
X209651428Y-76652380D01*
X209699047Y-76604761D01*
X209651428Y-76557142D01*
X209651428Y-76652380D01*
X209651428Y-76033333D02*
X209603809Y-76080952D01*
X209651428Y-76128571D01*
X209699047Y-76080952D01*
X209651428Y-76033333D01*
X209651428Y-76128571D01*
X208460952Y-75604761D02*
X209318095Y-76890476D01*
X207413333Y-75604761D02*
X208270476Y-76890476D01*
X206651428Y-75985714D02*
X206651428Y-76795238D01*
X206699047Y-76890476D01*
X206746666Y-76938095D01*
X206841904Y-76985714D01*
X206984761Y-76985714D01*
X207080000Y-76938095D01*
X206651428Y-76604761D02*
X206746666Y-76652380D01*
X206937142Y-76652380D01*
X207032380Y-76604761D01*
X207080000Y-76557142D01*
X207127619Y-76461904D01*
X207127619Y-76176190D01*
X207080000Y-76080952D01*
X207032380Y-76033333D01*
X206937142Y-75985714D01*
X206746666Y-75985714D01*
X206651428Y-76033333D01*
X206175238Y-76652380D02*
X206175238Y-75985714D01*
X206175238Y-75652380D02*
X206222857Y-75700000D01*
X206175238Y-75747619D01*
X206127619Y-75700000D01*
X206175238Y-75652380D01*
X206175238Y-75747619D01*
X205841904Y-75985714D02*
X205460952Y-75985714D01*
X205699047Y-75652380D02*
X205699047Y-76509523D01*
X205651428Y-76604761D01*
X205556190Y-76652380D01*
X205460952Y-76652380D01*
X205127619Y-76652380D02*
X205127619Y-75652380D01*
X204699047Y-76652380D02*
X204699047Y-76128571D01*
X204746666Y-76033333D01*
X204841904Y-75985714D01*
X204984761Y-75985714D01*
X205080000Y-76033333D01*
X205127619Y-76080952D01*
X203794285Y-75985714D02*
X203794285Y-76652380D01*
X204222857Y-75985714D02*
X204222857Y-76509523D01*
X204175238Y-76604761D01*
X204080000Y-76652380D01*
X203937142Y-76652380D01*
X203841904Y-76604761D01*
X203794285Y-76557142D01*
X203318095Y-76652380D02*
X203318095Y-75652380D01*
X203318095Y-76033333D02*
X203222857Y-75985714D01*
X203032380Y-75985714D01*
X202937142Y-76033333D01*
X202889523Y-76080952D01*
X202841904Y-76176190D01*
X202841904Y-76461904D01*
X202889523Y-76557142D01*
X202937142Y-76604761D01*
X203032380Y-76652380D01*
X203222857Y-76652380D01*
X203318095Y-76604761D01*
X202413333Y-76557142D02*
X202365714Y-76604761D01*
X202413333Y-76652380D01*
X202460952Y-76604761D01*
X202413333Y-76557142D01*
X202413333Y-76652380D01*
X201508571Y-76604761D02*
X201603809Y-76652380D01*
X201794285Y-76652380D01*
X201889523Y-76604761D01*
X201937142Y-76557142D01*
X201984761Y-76461904D01*
X201984761Y-76176190D01*
X201937142Y-76080952D01*
X201889523Y-76033333D01*
X201794285Y-75985714D01*
X201603809Y-75985714D01*
X201508571Y-76033333D01*
X200937142Y-76652380D02*
X201032380Y-76604761D01*
X201080000Y-76557142D01*
X201127619Y-76461904D01*
X201127619Y-76176190D01*
X201080000Y-76080952D01*
X201032380Y-76033333D01*
X200937142Y-75985714D01*
X200794285Y-75985714D01*
X200699047Y-76033333D01*
X200651428Y-76080952D01*
X200603809Y-76176190D01*
X200603809Y-76461904D01*
X200651428Y-76557142D01*
X200699047Y-76604761D01*
X200794285Y-76652380D01*
X200937142Y-76652380D01*
X200175238Y-76652380D02*
X200175238Y-75985714D01*
X200175238Y-76080952D02*
X200127619Y-76033333D01*
X200032380Y-75985714D01*
X199889523Y-75985714D01*
X199794285Y-76033333D01*
X199746666Y-76128571D01*
X199746666Y-76652380D01*
X199746666Y-76128571D02*
X199699047Y-76033333D01*
X199603809Y-75985714D01*
X199460952Y-75985714D01*
X199365714Y-76033333D01*
X199318095Y-76128571D01*
X199318095Y-76652380D01*
X198127619Y-75604761D02*
X198984761Y-76890476D01*
X197794285Y-75985714D02*
X197794285Y-76842857D01*
X197841904Y-76938095D01*
X197937142Y-76985714D01*
X197984761Y-76985714D01*
X197794285Y-75652380D02*
X197841904Y-75700000D01*
X197794285Y-75747619D01*
X197746666Y-75700000D01*
X197794285Y-75652380D01*
X197794285Y-75747619D01*
X197365714Y-76604761D02*
X197270476Y-76652380D01*
X197080000Y-76652380D01*
X196984761Y-76604761D01*
X196937142Y-76509523D01*
X196937142Y-76461904D01*
X196984761Y-76366666D01*
X197080000Y-76319047D01*
X197222857Y-76319047D01*
X197318095Y-76271428D01*
X197365714Y-76176190D01*
X197365714Y-76128571D01*
X197318095Y-76033333D01*
X197222857Y-75985714D01*
X197080000Y-75985714D01*
X196984761Y-76033333D01*
X196508571Y-75985714D02*
X196508571Y-76985714D01*
X196508571Y-76033333D02*
X196413333Y-75985714D01*
X196222857Y-75985714D01*
X196127619Y-76033333D01*
X196080000Y-76080952D01*
X196032380Y-76176190D01*
X196032380Y-76461904D01*
X196080000Y-76557142D01*
X196127619Y-76604761D01*
X196222857Y-76652380D01*
X196413333Y-76652380D01*
X196508571Y-76604761D01*
X195460952Y-76652380D02*
X195556190Y-76604761D01*
X195603809Y-76557142D01*
X195651428Y-76461904D01*
X195651428Y-76176190D01*
X195603809Y-76080952D01*
X195556190Y-76033333D01*
X195460952Y-75985714D01*
X195318095Y-75985714D01*
X195222857Y-76033333D01*
X195175238Y-76080952D01*
X195127619Y-76176190D01*
X195127619Y-76461904D01*
X195175238Y-76557142D01*
X195222857Y-76604761D01*
X195318095Y-76652380D01*
X195460952Y-76652380D01*
X194556190Y-76652380D02*
X194651428Y-76604761D01*
X194699047Y-76509523D01*
X194699047Y-75652380D01*
X194222857Y-76604761D02*
X194127619Y-76652380D01*
X193937142Y-76652380D01*
X193841904Y-76604761D01*
X193794285Y-76509523D01*
X193794285Y-76461904D01*
X193841904Y-76366666D01*
X193937142Y-76319047D01*
X194080000Y-76319047D01*
X194175238Y-76271428D01*
X194222857Y-76176190D01*
X194222857Y-76128571D01*
X194175238Y-76033333D01*
X194080000Y-75985714D01*
X193937142Y-75985714D01*
X193841904Y-76033333D01*
X193365714Y-76652380D02*
X193365714Y-75652380D01*
X193270476Y-76271428D02*
X192984761Y-76652380D01*
X192984761Y-75985714D02*
X193365714Y-76366666D01*
X192651428Y-75985714D02*
X192413333Y-76652380D01*
X192175238Y-75985714D02*
X192413333Y-76652380D01*
X192508571Y-76890476D01*
X192556190Y-76938095D01*
X192651428Y-76985714D01*
X191080000Y-75604761D02*
X191937142Y-76890476D01*
X190746666Y-76652380D02*
X190746666Y-75652380D01*
X190746666Y-76033333D02*
X190651428Y-75985714D01*
X190460952Y-75985714D01*
X190365714Y-76033333D01*
X190318095Y-76080952D01*
X190270476Y-76176190D01*
X190270476Y-76461904D01*
X190318095Y-76557142D01*
X190365714Y-76604761D01*
X190460952Y-76652380D01*
X190651428Y-76652380D01*
X190746666Y-76604761D01*
X189841904Y-76652380D02*
X189841904Y-75985714D01*
X189841904Y-76176190D02*
X189794285Y-76080952D01*
X189746666Y-76033333D01*
X189651428Y-75985714D01*
X189556190Y-75985714D01*
X188794285Y-76652380D02*
X188794285Y-76128571D01*
X188841904Y-76033333D01*
X188937142Y-75985714D01*
X189127619Y-75985714D01*
X189222857Y-76033333D01*
X188794285Y-76604761D02*
X188889523Y-76652380D01*
X189127619Y-76652380D01*
X189222857Y-76604761D01*
X189270476Y-76509523D01*
X189270476Y-76414285D01*
X189222857Y-76319047D01*
X189127619Y-76271428D01*
X188889523Y-76271428D01*
X188794285Y-76223809D01*
X188318095Y-75985714D02*
X188318095Y-76652380D01*
X188318095Y-76080952D02*
X188270476Y-76033333D01*
X188175238Y-75985714D01*
X188032380Y-75985714D01*
X187937142Y-76033333D01*
X187889523Y-76128571D01*
X187889523Y-76652380D01*
X186984761Y-76604761D02*
X187080000Y-76652380D01*
X187270476Y-76652380D01*
X187365714Y-76604761D01*
X187413333Y-76557142D01*
X187460952Y-76461904D01*
X187460952Y-76176190D01*
X187413333Y-76080952D01*
X187365714Y-76033333D01*
X187270476Y-75985714D01*
X187080000Y-75985714D01*
X186984761Y-76033333D01*
X186556190Y-76652380D02*
X186556190Y-75652380D01*
X186127619Y-76652380D02*
X186127619Y-76128571D01*
X186175238Y-76033333D01*
X186270476Y-75985714D01*
X186413333Y-75985714D01*
X186508571Y-76033333D01*
X186556190Y-76080952D01*
X185080000Y-76557142D02*
X185127619Y-76604761D01*
X185270476Y-76652380D01*
X185365714Y-76652380D01*
X185508571Y-76604761D01*
X185603809Y-76509523D01*
X185651428Y-76414285D01*
X185699047Y-76223809D01*
X185699047Y-76080952D01*
X185651428Y-75890476D01*
X185603809Y-75795238D01*
X185508571Y-75700000D01*
X185365714Y-75652380D01*
X185270476Y-75652380D01*
X185127619Y-75700000D01*
X185080000Y-75747619D01*
X184508571Y-76652380D02*
X184603809Y-76604761D01*
X184651428Y-76557142D01*
X184699047Y-76461904D01*
X184699047Y-76176190D01*
X184651428Y-76080952D01*
X184603809Y-76033333D01*
X184508571Y-75985714D01*
X184365714Y-75985714D01*
X184270476Y-76033333D01*
X184222857Y-76080952D01*
X184175238Y-76176190D01*
X184175238Y-76461904D01*
X184222857Y-76557142D01*
X184270476Y-76604761D01*
X184365714Y-76652380D01*
X184508571Y-76652380D01*
X183746666Y-75985714D02*
X183746666Y-76652380D01*
X183746666Y-76080952D02*
X183699047Y-76033333D01*
X183603809Y-75985714D01*
X183460952Y-75985714D01*
X183365714Y-76033333D01*
X183318095Y-76128571D01*
X183318095Y-76652380D01*
X182984761Y-75985714D02*
X182603809Y-75985714D01*
X182841904Y-75652380D02*
X182841904Y-76509523D01*
X182794285Y-76604761D01*
X182699047Y-76652380D01*
X182603809Y-76652380D01*
X182270476Y-76652380D02*
X182270476Y-75985714D01*
X182270476Y-76176190D02*
X182222857Y-76080952D01*
X182175238Y-76033333D01*
X182080000Y-75985714D01*
X181984761Y-75985714D01*
X181508571Y-76652380D02*
X181603809Y-76604761D01*
X181651428Y-76557142D01*
X181699047Y-76461904D01*
X181699047Y-76176190D01*
X181651428Y-76080952D01*
X181603809Y-76033333D01*
X181508571Y-75985714D01*
X181365714Y-75985714D01*
X181270476Y-76033333D01*
X181222857Y-76080952D01*
X181175238Y-76176190D01*
X181175238Y-76461904D01*
X181222857Y-76557142D01*
X181270476Y-76604761D01*
X181365714Y-76652380D01*
X181508571Y-76652380D01*
X180603809Y-76652380D02*
X180699047Y-76604761D01*
X180746666Y-76509523D01*
X180746666Y-75652380D01*
X180080000Y-76652380D02*
X180175238Y-76604761D01*
X180222857Y-76509523D01*
X180222857Y-75652380D01*
X179318095Y-76604761D02*
X179413333Y-76652380D01*
X179603809Y-76652380D01*
X179699047Y-76604761D01*
X179746666Y-76509523D01*
X179746666Y-76128571D01*
X179699047Y-76033333D01*
X179603809Y-75985714D01*
X179413333Y-75985714D01*
X179318095Y-76033333D01*
X179270476Y-76128571D01*
X179270476Y-76223809D01*
X179746666Y-76319047D01*
X178841904Y-76652380D02*
X178841904Y-75985714D01*
X178841904Y-76176190D02*
X178794285Y-76080952D01*
X178746666Y-76033333D01*
X178651428Y-75985714D01*
X178556190Y-75985714D01*
X178270476Y-75747619D02*
X178222857Y-75700000D01*
X178127619Y-75652380D01*
X177889523Y-75652380D01*
X177794285Y-75700000D01*
X177746666Y-75747619D01*
X177699047Y-75842857D01*
X177699047Y-75938095D01*
X177746666Y-76080952D01*
X178318095Y-76652380D01*
X177699047Y-76652380D01*
M02*
